<svg version="1.2" xmlns="http://www.w3.org/2000/svg" viewBox="0 0 1280 640" width="200" height="200"><style></style><path  d="m487.5 129.2c1.7 0-1.3 0.9-6.5 1.9-47 9.1-84.5 23.7-117 45.4-14.9 10-25.6 18.4-46.7 37.1-22.9 20.2-26.6 23.2-39 32.3-47 34-112 65.3-190.8 91.9-26.9 9.1-66.3 20.8-67.1 20-0.2-0.3 4.7-2 10.8-3.8 47.4-13.8 104.2-35.1 143.3-53.9 59.5-28.5 99.2-54.6 137.6-90.8 33.8-31.8 71-53.4 116.6-67.8 11.5-3.6 30.7-8.1 42.5-10 5.6-0.9 11-1.8 11.8-1.9 0.8-0.2 2.9-0.4 4.5-0.4z"/><path  d="m695.5 137c35.8 2.8 78.3 8 91 11 23.4 5.5 118.5 41.3 149.5 56.4l9.5 4.6-7-0.6c-3.8-0.2-13.3-0.9-21-1.5-25.4-1.8-118.5-2.3-161.5-0.8-21.7 0.8-49.2 1.4-61 1.4-19.8 0-22.1-0.2-28.6-2.3-9.7-3.2-12.3-5.1-34-24.9-10.4-9.5-22.9-20.4-27.9-24.3-18.9-14.8-19.7-15.7-15.2-18.2 1.2-0.6 6.9-1.5 12.7-1.9 14.1-1 77.2-0.2 93.5 1.1z"/><path  d="m538.7 148.6c27.9 5.7 54 23.4 73.6 49.7 6 8.1 14.7 22 14.2 22.6-0.3 0.2-15.4 1-33.7 1.7-119 4.7-139.1 5.4-139.3 5.2-0.1-0.2-2.3-4.4-5-9.3-7.1-13.3-15.7-25.5-25.2-35.5-4.5-5-8.3-9.4-8.3-9.8 0-2.1 4.7-4.7 17.5-9.3 23-8.4 48-14.6 68-16.9 10.4-1.1 28.6-0.4 38.2 1.6z"/><path  d="m411.9 186.7c7.8 7.9 18.6 23.2 23.7 33.5 4.3 8.8 4.3 8.8-20.5 8.8-35.4 0-72 2.7-86.1 6.4-3 0.8-5.7 1.3-5.9 1.1-0.2-0.2 0.7-1.9 2-3.7 13.5-19.5 28.3-31.6 56.4-46 20-10.3 20.3-10.3 30.4-0.1z"/><path  d="m965.5 216.5c103.9 9.2 173.1 20 212.5 33.2 10.3 3.4 33.6 14 32.8 14.8-0.2 0.3-4.4-0.9-9.2-2.5-20.1-6.9-42.3-11-58.8-11-30.6 0-73.1 3.4-76.3 6-2.8 2.3-1.6 6.9 5.4 19.8 8.6 16 26.7 52.5 24.4 49.2-22.1-31.1-51.6-57.6-80.3-72-9.7-4.8-15.1-6.4-34-9.4-8.5-1.4-24.5-4.2-35.5-6.1-65.1-11.4-140.8-19.1-193-19.6-7.1-0.1-12.3-0.3-11.5-0.5 0.8-0.1 21.3-0.8 45.5-1.5 24.2-0.6 51-1.5 59.5-1.9 24.8-1.3 97.8-0.4 118.5 1.5z"/><path  d="m1174.7 260c28.4 5.9 40.5 10.8 45.8 18.8 4.6 6.9 14.5 38.3 14.5 45.9 0 3.4-0.6 5-2.6 7-2.4 2.4-3 2.5-9.7 2-11.1-0.9-49.6-2.7-76.7-3.6-23.7-0.7-24.7-0.8-29.6-3.4-2.8-1.4-7.1-4.8-9.5-7.5-5.6-6.2-16.7-23.7-23.6-36.9-5.7-11.1-6.5-15.6-3.5-19.3 2.2-2.7 9.6-3.6 40.7-4.9 35.9-1.5 38-1.4 54.2 1.9z"/><path  d="m934.8 261.2c24.2 9.9 37.6 27.4 30.2 39.5-5.7 9.4-25.4 10.7-40.9 2.8-13.1-6.6-25.2-23.5-23.4-32.6 0.6-3.4 6.4-9.6 10.7-11.5 4.6-2.1 15.8-1.3 23.4 1.8z"/><path  d="m944.1 259.9c17.3 5.9 28.7 16.4 31.4 28.9 1.6 7.4-2.1 14.4-9.6 18.2-5.4 2.8-5.9 2.5-1.7-1 4.2-3.4 7.8-10.3 7.8-14.6-0.1-9.3-10.2-19.9-28.5-29.6-7.8-4.2-7.6-4.7 0.6-1.9z"/><path  d="m995.7 258.3c7.3 0.3 9.2 0.8 17 4.7 7.1 3.5 10.5 6 17.9 13.4 7.4 7.4 9.5 10.2 11.3 14.9 8.1 22.1-8.8 32.2-34 20.2-24.4-11.5-38.5-43.3-23-52.1 1.9-1 4.9-1.4 10.8-1.1z"/><path  d="m1019.5 262.9l4 2.2c16.7 9.4 27 19.4 29.5 28.8 1 3.7 0.9 5.1-0.4 8.6-0.9 2.3-2.8 5.3-4.3 6.6-2.3 2.1-2.5 2.2-1.8 0.4 0.4-1.1 1-4.4 1.3-7.3 0.9-10.1-7.7-22.8-24.8-36.5z"/><path  d="m1239.6 289.5c7.9 11.1 15.4 30.3 14 35.9-1.7 6.9-7.6 0.3-17.6-19.8-7.8-15.5-9.8-21.1-8.6-24.1 1.3-3.5 6.2-0.3 12.2 8z"/><path  d="m742.5 297.2l9.7-0.1c12-0.1 18.3 1.1 27.3 5.4 13.9 6.7 24.4 18 32.6 35 9.8 20.4 13.4 38.7 12.6 64-2 61.1-29.5 97.7-73.1 97.4h-9.1l7.5-2c11.1-2.8 19.5-7.5 27-14.9 13.1-12.9 21.4-32.1 26-60 6.3-38.7 1.3-76.5-12.9-98.3-9.3-14.2-22.2-22.6-38.6-25.1z"/><path  d="m334.8 342.5c11.5 17.8 22.7 27 36.6 30 6.8 1.5 23.6 2.6 161.1 10.5 28.6 1.7 65.5 3.9 82 5l30 1.9-26-0.5c-14.3-0.2-58.8-0.9-99-1.5-148.4-2.2-159.6-2.5-163.8-4.3-5.1-2.3-11.4-8.1-13.9-13-1.8-3.4-12.8-35-12.8-36.5 0-0.3 2.6 3.5 5.8 8.4z"/><path  d="m404.5 400.6c42.6 1.8 146.7 5.3 186.5 6.1 23.5 0.5 30.3 0.9 24.5 1.4-16.8 1.5-126.8 3.1-169.5 2.5-62-0.8-106.9-1.9-104.5-2.4 1.1-0.3 13.5-2.2 27.5-4.2 20.4-3.1 27.5-3.7 35.5-3.4z"/><path  d="m856.3 406.5c5.9 0.9 75.7 2.6 81 2l5.2-0.7 3.9 5.6c7 10.3 16.8 15.9 30.2 17.6 8.1 1 50.8 3.3 93.9 5 93.3 3.8 184.6-4.3 200.5-17.7l3-2.5 2.5 5.5c5.5 11.9 4 19.5-4.8 25.4-16.4 11-57.1 15.9-159.7 19.3-67 2.2-134.7 0.6-207-5.1-26.3-2.1-49.9-4.4-50.4-5-0.7-0.8-2.7-48-2.1-48.9 0.4-0.6 2.1-0.8 3.8-0.5z"/><path  d="m832.2 423.1c0.4 1.9 1 13.1 1.2 24.9 0.6 25.6-0.8 23.6 17.4 24.6 6.7 0.4 12.2 1.1 12.2 1.7 0 2.4-24.1 24-29.3 26.2-5.1 2.1-18.6 3.4-42.9 4.2-15.5 0.4-20.8 0.3-20.8-0.5 0-0.7 0.6-1.2 1.3-1.2 3.1 0 19.8-9.2 26.8-14.7 16.5-13.2 28.6-35.7 32.1-59.7 1.1-7.9 1.3-8.5 2-5.5z"/><path  d="m218.5 432.1l6.5 0.4c3.6 0.3 26.5 2.5 51 5 137.1 13.7 241.4 22.8 322.5 27.9 17.9 1.1 10.7 1.2-68 0.9-48.4-0.2-91.4-0.5-95.5-0.7-6.5-0.4-186.9-28.1-208.5-32.1z"/><path  d="m1195 475.9c0 1.4-10.2 10.5-16.9 15-8.5 5.8-24.9 13.5-34.1 16-17.8 4.8-35.9 4.8-52-0.1-8-2.5-22-9.6-28.7-14.6-6.8-5.1-16.3-13.3-16.3-14.1 0-0.3 26.2-0.7 58.3-0.8 32-0.2 63.4-0.7 69.7-1.1 16.3-1.3 20-1.3 20-0.3z"/></svg>