<svg version="1.2" xmlns="http://www.w3.org/2000/svg" viewBox="0 0 489 489" width="80" height="80"><style></style><path fill-rule="evenodd" d="m461.5 181.6l-55.3-0.1c1.6 3.3 2.6 7 2.6 10.9v64.8c4.5 4.8 7.2 11.3 7.2 18.5v124.3c8 1.7 14.7 6.8 18.5 13.7h9.5c15.9 0 28.8 13 28.8 28.9v17.1c0 15.9-12.9 28.8-28.8 28.8h-399.5c-15.9 0-28.8-12.9-28.8-28.8v-17.1c0-15.9 12.9-28.9 28.8-28.9h14c4.4-7.9 12.6-13.5 22.1-14.1v-123.9c0-7.2 2.8-13.7 7.3-18.5v-64.8c0-4 1-7.8 2.6-11.1l-63.5-0.1c-6.4 0-12-4.1-13.9-10.1-1.8-6.1 0.4-12.7 5.6-16.3l219.3-152.2c5-3.5 11.6-3.5 16.6 0.1l215.3 152.5c5.2 3.7 7.4 10.3 5.5 16.3-2 6-7.5 10.1-13.8 10.1q-0.1 0-0.1 0zm-305-0.3c1.6 3.4 2.6 7.1 2.6 11.1v64.8c1.4 1.5 2.6 3.2 3.6 5 12.4-36 46.5-61.9 86.6-61.9 39.4 0 73 25 85.9 59.9q1.1-1.6 2.4-3v-64.8c0-3.9 0.9-7.6 2.5-10.9zm87.8 167.3v12.2h8.6v-12.4q15.9-0.9 25-11.2 9-10.4 9-24.4 0-13.4-7.1-21.2-7.1-7.8-26.9-11.8v-40.3q14.3 2 15.6 16.9h15.6q-2.8-26.9-31.2-29v-12.3h-8.6v12.3q-14.9 1.4-23.6 10-8.8 8.6-8.8 22.8 0 25.1 32.4 31.5v44.7q-17.6-2.9-19.3-22.9h-15.6q2.3 31.5 34.9 35.1zm-77.9 50.8h164v-65.2c-15.3 29.2-45.8 49-81 49-36.8 0-68.4-21.6-83-52.9zm86.5-63v-42.7q10.9 2.8 14.7 7.3 3.7 4.5 3.7 12.8 0 20.3-18.4 22.6zm-8.6-58.4q-7.5-1.9-12.2-6-4.7-4.1-4.7-13 0-16.7 16.9-19.6z"/></svg>