<?xml version="1.0" standalone="no"?>
<!DOCTYPE svg PUBLIC "-//W3C//DTD SVG 20010904//EN"
 "http://www.w3.org/TR/2001/REC-SVG-20010904/DTD/svg10.dtd">
<svg version="1.0" xmlns="http://www.w3.org/2000/svg"
 width="818.000000pt" height="1280.000000pt" viewBox="0 0 818.000000 1280.000000"
 preserveAspectRatio="xMidYMid meet">
<metadata>
Created by potrace 1.15, written by Peter Selinger 2001-2017
</metadata>
<g transform="translate(0.000000,1280.000000) scale(0.100000,-0.100000)"
fill="#000000" stroke="none">
<path d="M2865 12793 c-30 -5 -166 -60 -175 -72 -3 -3 -22 -17 -43 -31 -39
-26 -157 -172 -157 -195 0 -7 -7 -18 -16 -25 -8 -8 -33 -44 -55 -81 l-39 -67
0 -170 c0 -167 0 -169 -25 -192 -29 -27 -30 -42 -10 -130 8 -36 18 -83 22
-105 8 -39 9 -40 60 -48 48 -8 53 -11 64 -45 14 -42 6 -437 -11 -536 -12 -73
-61 -136 -138 -178 -29 -15 -76 -47 -105 -69 -83 -66 -206 -112 -332 -124 -38
-3 -98 -13 -133 -21 -35 -8 -90 -14 -122 -14 -57 0 -59 -1 -99 -49 -22 -26
-72 -70 -111 -96 -150 -101 -301 -292 -364 -460 -44 -116 -66 -152 -119 -197
-139 -116 -295 -281 -366 -388 -14 -21 -64 -85 -111 -142 -83 -101 -139 -189
-140 -217 0 -8 -18 -49 -40 -92 -34 -66 -40 -87 -40 -139 0 -56 6 -72 68 -193
38 -73 72 -144 76 -159 8 -36 136 -258 185 -323 21 -27 116 -133 212 -235 96
-102 215 -230 264 -284 125 -136 142 -145 305 -156 131 -8 173 -21 186 -54 3
-8 0 -38 -6 -67 -6 -30 -15 -83 -22 -119 -6 -36 -17 -90 -25 -120 -47 -189
-190 -920 -217 -1115 -9 -66 -26 -178 -36 -250 -11 -71 -22 -159 -25 -195 -3
-36 -13 -94 -21 -130 -14 -62 -71 -383 -99 -560 -7 -47 -23 -138 -35 -203 -11
-65 -20 -137 -18 -160 3 -36 6 -42 28 -45 58 -6 232 -56 237 -68 6 -17 -21
-193 -48 -303 -22 -88 -44 -152 -130 -372 -84 -216 -104 -328 -134 -754 -8
-121 -20 -263 -25 -315 -6 -52 -17 -234 -25 -405 -35 -704 -36 -720 -69 -800
-8 -18 -19 -57 -25 -87 l-11 -53 -69 0 c-56 0 -75 -4 -98 -22 -15 -11 -26 -27
-24 -35 13 -46 10 -57 -34 -122 -26 -38 -75 -123 -109 -190 -102 -203 -141
-252 -323 -414 -127 -113 -194 -249 -192 -395 0 -71 0 -72 39 -103 36 -29 52
-33 267 -68 256 -41 262 -41 324 -22 24 7 67 19 94 25 30 7 87 37 145 75 104
69 222 137 392 227 43 23 97 58 120 79 l43 38 0 143 c0 79 4 180 9 224 7 62 5
94 -7 141 -9 34 -19 119 -22 190 -6 101 -11 135 -25 155 -41 58 -43 97 -11
251 49 235 53 253 62 264 5 6 18 42 28 80 93 337 160 548 201 639 15 33 59
111 98 174 70 111 114 218 127 306 3 22 10 58 15 80 6 22 19 184 30 360 29
466 30 470 165 778 l38 87 162 0 c124 0 165 3 174 13 6 8 15 58 21 113 13 130
19 169 36 229 8 28 22 88 33 135 10 47 38 149 60 228 23 79 48 190 56 247 7
57 25 137 38 177 23 69 78 289 93 371 7 39 27 49 39 20 27 -68 49 -141 66
-225 10 -53 38 -150 60 -215 22 -65 51 -154 64 -198 33 -114 74 -234 95 -275
26 -52 100 -302 116 -395 18 -102 29 -124 81 -146 31 -13 44 -25 49 -46 4 -15
26 -68 49 -118 121 -258 134 -319 155 -715 14 -265 25 -372 54 -496 22 -95 77
-234 133 -334 76 -137 186 -428 233 -617 16 -67 45 -173 64 -235 44 -143 63
-245 72 -381 7 -105 6 -109 -17 -133 -18 -20 -25 -41 -30 -92 -11 -122 -61
-406 -81 -464 -21 -62 -26 -148 -13 -246 6 -51 14 -68 39 -93 37 -37 83 -61
151 -82 28 -8 79 -26 114 -41 36 -14 72 -26 82 -26 10 0 30 -16 45 -35 15 -20
46 -47 68 -60 47 -27 236 -85 278 -85 15 0 56 -10 90 -22 59 -20 70 -21 189
-11 195 17 236 48 226 170 -2 32 -10 78 -16 103 -6 25 -19 79 -28 120 l-17 75
-112 111 c-119 118 -139 151 -109 184 15 16 16 29 9 92 -4 40 -7 116 -5 168 3
102 -22 284 -42 310 -37 46 -49 81 -38 112 6 17 11 56 11 87 0 157 95 758 129
816 25 41 77 265 96 410 13 96 14 178 10 415 -7 324 -3 361 54 585 43 169 58
278 76 535 20 285 32 365 111 745 36 171 76 371 89 445 26 151 32 170 50 170
18 0 86 -52 124 -96 32 -36 126 -220 201 -394 18 -41 92 -203 165 -360 165
-355 193 -424 295 -735 85 -260 100 -296 199 -483 70 -134 85 -190 136 -517
51 -331 73 -400 210 -675 48 -96 94 -186 101 -200 8 -14 37 -86 65 -160 29
-74 63 -157 77 -185 30 -60 90 -224 102 -280 5 -22 22 -77 39 -123 36 -98 37
-106 12 -163 -16 -37 -21 -82 -29 -274 l-8 -230 33 -68 c40 -80 88 -136 191
-218 96 -77 128 -93 244 -118 l96 -21 144 20 c142 20 220 45 232 76 3 8 1 37
-4 65 -6 28 -7 68 -4 90 11 67 -2 88 -122 206 -63 61 -114 117 -114 123 0 6
-18 41 -40 77 -27 45 -40 79 -40 102 0 65 -24 191 -36 191 -16 0 -24 24 -24
66 0 49 -12 67 -74 108 -37 25 -58 46 -65 69 -6 17 -22 138 -36 267 -14 129
-32 286 -40 348 -8 62 -15 144 -15 182 0 133 -70 684 -105 830 -40 166 -51
196 -148 410 -75 165 -103 254 -146 465 -29 145 -39 254 -56 585 -16 315 -16
319 -46 510 -74 472 -141 749 -240 987 -75 180 -101 257 -125 373 -36 169 -81
314 -125 409 -59 126 -59 126 31 122 86 -3 84 -4 246 144 272 250 368 369 504
625 46 85 95 169 110 185 42 46 50 68 50 137 0 53 -6 76 -34 131 -18 36 -38
72 -43 79 -6 7 -14 24 -18 37 -20 65 -299 402 -451 544 -48 45 -103 112 -158
195 -115 172 -294 354 -435 443 -42 27 -51 29 -160 30 -64 1 -127 4 -141 8
l-25 7 -6 264 c-14 593 -79 915 -231 1160 -84 134 -135 190 -216 232 -85 44
-130 48 -212 17 -38 -14 -91 -22 -168 -26 l-114 -6 -52 -48 c-67 -61 -144
-175 -185 -274 -18 -43 -55 -117 -82 -164 -73 -126 -94 -210 -106 -423 -4 -75
-10 -118 -17 -118 -6 0 -22 16 -36 36 -30 44 -142 143 -266 235 -54 40 -94 76
-94 86 0 9 -10 32 -22 50 -23 32 -24 33 -99 33 l-76 0 -31 40 c-41 50 -113 83
-166 76 -33 -4 -47 1 -83 27 -41 29 -46 30 -78 18 -44 -16 -51 -11 -59 39 -7
48 -25 51 -68 15 -22 -19 -41 -25 -76 -25 -45 0 -48 2 -67 41 -10 23 -25 44
-32 46 -8 3 -25 25 -39 49 -26 44 -26 45 -22 231 4 176 6 194 34 278 26 79 33
90 54 93 95 10 126 38 142 131 19 109 8 158 -39 180 -23 10 -24 14 -16 59 11
71 7 180 -11 246 -26 99 -114 240 -203 327 -128 124 -174 152 -299 184 -61 15
-81 16 -139 8z m-1159 -3195 c52 -57 58 -80 59 -238 1 -135 4 -152 34 -245 31
-95 33 -105 27 -210 -6 -116 -19 -203 -60 -400 -14 -66 -32 -196 -41 -290 -8
-93 -18 -180 -21 -192 -6 -23 -9 -23 -157 -23 -214 0 -271 23 -326 132 -7 15
-38 60 -69 100 -116 154 -124 173 -147 350 -15 116 -29 168 -59 226 -8 16 -20
49 -25 71 -9 40 -7 44 36 96 24 30 48 55 53 55 32 0 149 102 300 262 246 261
322 335 346 337 11 0 33 -13 50 -31z m2524 -623 c28 -15 58 -61 75 -115 11
-37 155 -329 164 -335 5 -2 19 -30 31 -60 l22 -55 -39 -53 c-90 -118 -210
-233 -284 -272 -65 -34 -82 -38 -187 -46 -64 -6 -122 -7 -130 -4 -12 4 -13 25
-8 118 4 61 9 136 12 166 4 32 -1 102 -11 169 -19 121 -17 292 3 343 7 18 36
40 89 70 169 94 205 104 263 74z m2181 -132 c25 -27 73 -82 106 -123 73 -91
166 -179 253 -240 36 -25 109 -89 163 -143 124 -125 124 -120 26 -317 -40 -80
-80 -161 -88 -180 -41 -91 -260 -385 -294 -394 -66 -17 -146 11 -232 82 -28
23 -71 58 -97 79 -63 51 -82 102 -119 308 -14 78 -14 351 0 440 6 39 25 113
41 165 16 52 43 145 61 205 50 175 96 205 180 118z m-1757 -1005 c8 -24 27
-86 41 -138 14 -52 30 -111 36 -130 10 -34 5 -64 -51 -280 -5 -19 -13 -53 -18
-75 -5 -22 -19 -68 -31 -102 -11 -34 -21 -69 -21 -78 0 -8 -25 -68 -56 -132
-34 -73 -69 -168 -90 -248 -34 -128 -78 -271 -95 -310 -27 -61 -49 -150 -55
-228 -4 -48 -10 -90 -15 -93 -17 -10 -37 54 -44 139 -4 49 -11 103 -16 120 -9
29 -29 133 -59 307 -11 62 -31 159 -69 336 -10 44 -22 87 -26 95 -5 7 -12 59
-15 115 -4 61 -13 112 -23 130 -35 65 -47 116 -47 199 0 54 4 86 12 91 6 4 62
15 124 25 157 23 200 48 322 188 53 61 125 111 158 111 17 0 26 -10 38 -42z
m-303 -2589 c33 -364 43 -458 69 -674 45 -370 63 -589 56 -692 -6 -107 -23
-183 -40 -183 -7 0 -22 26 -35 58 -12 31 -30 73 -38 92 -32 71 -103 255 -103
268 0 7 -4 20 -9 30 -21 40 -59 339 -45 352 5 4 42 17 82 29 l73 22 -6 72 c-9
115 -25 418 -32 592 -4 123 -3 157 6 149 7 -6 16 -58 22 -115z"/>
</g>
</svg>
