<svg version="1.2" xmlns="http://www.w3.org/2000/svg" viewBox="0 0 818 1280" width="200" height="200"><style></style><path fill-rule="evenodd" d="m300.4 1.5c12.5 3.2 17.1 6 29.9 18.4 8.9 8.7 17.7 22.8 20.3 32.7 1.8 6.6 2.2 17.5 1.1 24.6-0.8 4.5-0.7 4.9 1.6 5.9 4.7 2.2 5.8 7.1 3.9 18-1.6 9.3-4.7 12.1-14.2 13.1-2.1 0.3-2.8 1.4-5.4 9.3-2.8 8.4-3 10.2-3.4 27.8-0.4 18.6-0.4 18.7 2.2 23.1 1.4 2.4 3.1 4.6 3.9 4.9 0.7 0.2 2.2 2.3 3.2 4.6 1.9 3.9 2.2 4.1 6.7 4.1 3.5 0 5.4-0.6 7.6-2.5 4.3-3.6 6.1-3.3 6.8 1.5 0.8 5 1.5 5.5 5.9 3.9 3.2-1.2 3.7-1.1 7.8 1.8 3.6 2.6 5 3.1 8.3 2.7 5.3-0.7 12.5 2.6 16.6 7.6l3.1 4h7.6c7.5 0 7.6 0.1 9.9 3.3 1.2 1.8 2.2 4.1 2.2 5 0 1 4 4.6 9.4 8.6 12.4 9.2 23.6 19.1 26.6 23.5 1.4 2 3 3.6 3.6 3.6 0.7 0 1.3-4.3 1.7-11.8 1.2-21.3 3.3-29.7 10.6-42.3 2.7-4.7 6.4-12.1 8.2-16.4 4.1-9.9 11.8-21.3 18.5-27.4l5.2-4.8 11.4-0.6c7.7-0.4 13-1.2 16.8-2.6 8.2-3.1 12.7-2.7 21.2 1.7 8.1 4.2 13.2 9.8 21.6 23.2 15.2 24.5 21.7 56.7 23.1 116l0.6 26.4 2.5 0.7c1.4 0.4 7.7 0.7 14.1 0.8 10.9 0.1 11.8 0.3 16 3 14.1 8.9 32 27.1 43.5 44.3 5.5 8.3 11 15 15.8 19.5 15.2 14.2 43.1 47.9 45.1 54.4 0.4 1.3 1.2 3 1.8 3.7 0.5 0.7 2.5 4.3 4.3 7.9 2.8 5.5 3.4 7.8 3.4 13.1 0 6.9-0.8 9.1-5 13.7-1.5 1.6-6.4 10-11 18.5-13.6 25.6-23.2 37.5-50.4 62.5-16.2 14.8-16 14.7-24.6 14.4-9-0.4-9-0.4-3.1 12.2 4.4 9.5 8.9 24 12.5 40.9 2.4 11.6 5 19.3 12.5 37.3 9.9 23.8 16.6 51.5 24 98.7 3 19.1 3 19.5 4.6 51 1.7 33.1 2.7 44 5.6 58.5 4.3 21.1 7.1 30 14.6 46.5 9.7 21.4 10.8 24.4 14.8 41 3.5 14.6 10.5 69.7 10.5 83 0 3.8 0.7 12 1.5 18.2 0.8 6.2 2.6 21.9 4 34.8 1.4 12.9 3 25 3.6 26.7 0.7 2.3 2.8 4.4 6.5 6.9 6.2 4.1 7.4 5.9 7.4 10.8 0 4.2 0.8 6.6 2.4 6.6 1.2 0 3.6 12.6 3.6 19.1 0 2.3 1.3 5.7 4 10.2 2.2 3.6 4 7.1 4 7.7 0 0.6 5.1 6.2 11.4 12.3 12 11.8 13.3 13.9 12.2 20.6-0.3 2.2-0.2 6.2 0.4 9 0.5 2.8 0.7 5.7 0.4 6.5-1.2 3.1-9 5.6-23.2 7.6l-14.4 2-9.6-2.1c-11.6-2.5-14.8-4.1-24.4-11.8-10.3-8.2-15.1-13.8-19.1-21.8l-3.3-6.8 0.8-23c0.8-19.2 1.3-23.7 2.9-27.4 2.5-5.7 2.4-6.5-1.2-16.3-1.7-4.6-3.4-10.1-3.9-12.3-1.2-5.6-7.2-22-10.2-28-1.4-2.8-4.8-11.1-7.7-18.5-2.8-7.4-5.7-14.6-6.5-16-0.7-1.4-5.3-10.4-10.1-20-13.7-27.5-15.9-34.4-21-67.5-5.1-32.7-6.6-38.3-13.6-51.7-9.9-18.7-11.4-22.3-19.9-48.3-10.2-31.1-13-38-29.5-73.5-7.3-15.7-14.7-31.9-16.5-36-7.5-17.4-16.9-35.8-20.1-39.4-3.8-4.4-10.6-9.6-12.4-9.6-1.8 0-2.4 1.9-5 17-1.3 7.4-5.3 27.4-8.9 44.5-7.9 38-9.1 46-11.1 74.5-1.8 25.7-3.3 36.6-7.6 53.5-5.7 22.4-6.1 26.1-5.4 58.5 0.4 23.7 0.3 31.9-1 41.5-1.9 14.5-7.1 36.9-9.6 41-3.4 5.8-12.9 65.9-12.9 81.6 0 3.1-0.5 7-1.1 8.7-1.1 3.1 0.1 6.6 3.8 11.2 2 2.6 4.5 20.8 4.2 31-0.2 5.2 0.1 12.8 0.5 16.8 0.7 6.3 0.6 7.6-0.9 9.2-3 3.3-1 6.6 10.9 18.4l11.2 11.1 1.7 7.5c0.9 4.1 2.2 9.5 2.8 12 0.6 2.5 1.4 7.1 1.6 10.3 1 12.2-3.1 15.3-22.6 17-11.9 1-13 0.9-18.9-1.1-3.4-1.2-7.5-2.2-9-2.2-4.2 0-23.1-5.8-27.8-8.5-2.2-1.3-5.3-4-6.8-6-1.5-1.9-3.5-3.5-4.5-3.5-1 0-4.6-1.2-8.2-2.6-3.5-1.5-8.6-3.3-11.4-4.1-6.8-2.1-11.4-4.5-15.1-8.2-2.5-2.5-3.3-4.2-3.9-9.3-1.3-9.8-0.8-18.4 1.3-24.6 2-5.8 7-34.2 8.1-46.4 0.5-5.1 1.2-7.2 3-9.2 2.3-2.4 2.4-2.8 1.7-13.3-0.9-13.6-2.8-23.8-7.2-38.1-1.9-6.2-4.8-16.8-6.4-23.5-4.7-18.9-15.7-48-23.3-61.7-5.6-10-11.1-23.9-13.3-33.4-2.9-12.4-4-23.1-5.4-49.6-2.1-39.6-3.4-45.7-15.5-71.5-2.3-5-4.5-10.3-4.9-11.8-0.5-2.1-1.8-3.3-4.9-4.6-5.2-2.2-6.3-4.4-8.1-14.6-1.6-9.3-9-34.3-11.6-39.5-2.1-4.1-6.2-16.1-9.5-27.5-1.3-4.4-4.2-13.3-6.4-19.8-2.2-6.5-5-16.2-6-21.5-1.7-8.4-3.9-15.7-6.6-22.5-1.2-2.9-3.2-1.9-3.9 2-1.5 8.2-7 30.2-9.3 37.1-1.3 4-3.1 12-3.8 17.7-0.8 5.7-3.3 16.8-5.6 24.7-2.2 7.9-5 18.1-6 22.8-1.1 4.7-2.5 10.7-3.3 13.5-1.7 6-2.3 9.9-3.6 22.9-0.6 5.5-1.5 10.5-2.1 11.3-0.9 1-5 1.3-17.4 1.3h-16.2l-3.8 8.7c-13.5 30.8-13.6 31.2-16.5 77.8-1.1 17.6-2.4 33.8-3 36-0.5 2.2-1.2 5.8-1.5 8-1.3 8.8-5.7 19.5-12.7 30.6-3.9 6.3-8.3 14.1-9.8 17.4-4.1 9.1-10.8 30.2-20.1 63.9-1 3.8-2.3 7.4-2.8 8-0.9 1.1-1.3 2.9-6.2 26.4-3.2 15.4-3 19.3 1.1 25.1 1.4 2 1.9 5.4 2.5 15.5 0.3 7.1 1.3 15.6 2.2 19 1.2 4.7 1.4 7.9 0.7 14.1-0.5 4.4-0.9 14.5-0.9 22.4v14.3l-4.3 3.8c-2.3 2.1-7.7 5.6-12 7.9-17 9-28.8 15.8-39.2 22.7-5.8 3.8-11.5 6.8-14.5 7.5-2.7 0.6-7 1.8-9.4 2.5-6.2 1.9-6.8 1.9-32.4-2.2-21.5-3.5-23.1-3.9-26.7-6.8-3.9-3.1-3.9-3.2-3.9-10.3-0.2-14.6 6.5-28.2 19.2-39.5 18.2-16.2 22.1-21.1 32.3-41.4 3.4-6.7 8.3-15.2 10.9-19 4.4-6.5 4.7-7.6 3.4-12.2-0.2-0.8 0.9-2.4 2.4-3.5 2.3-1.8 4.2-2.2 9.8-2.2h6.9l1.1-5.3c0.6-3 1.7-6.9 2.5-8.7 3.3-8 3.4-9.6 6.9-80 0.8-17.1 1.9-35.3 2.5-40.5 0.5-5.2 1.7-19.4 2.5-31.5 3-42.6 5-53.8 13.4-75.4 8.6-22 10.8-28.4 13-37.2 2.7-11 5.4-28.6 4.8-30.3-0.5-1.2-17.9-6.2-23.7-6.8-2.2-0.3-2.5-0.9-2.8-4.5-0.2-2.3 0.7-9.5 1.8-16 1.2-6.5 2.8-15.6 3.5-20.3 2.8-17.7 8.5-49.8 9.9-56 0.8-3.6 1.8-9.4 2.1-13 0.3-3.6 1.4-12.4 2.5-19.5 1-7.2 2.7-18.4 3.6-25 2.7-19.5 17-92.6 21.7-111.5 0.8-3 1.9-8.4 2.5-12 0.7-3.6 1.6-8.9 2.2-11.9 0.6-2.9 0.9-5.9 0.6-6.7-1.3-3.3-5.5-4.6-18.6-5.4-16.3-1.1-18-2-30.5-15.6-4.9-5.4-16.8-18.2-26.4-28.4-9.6-10.2-19.1-20.8-21.2-23.5-4.9-6.5-17.7-28.7-18.5-32.3-0.4-1.5-3.8-8.6-7.6-15.9-6.2-12.1-6.8-13.7-6.8-19.3 0-5.2 0.6-7.3 4-13.9 2.2-4.3 4-8.4 4-9.2 0.1-2.8 5.7-11.6 14-21.7 4.7-5.7 9.7-12.1 11.1-14.2 7.1-10.7 22.7-27.2 36.6-38.8 5.3-4.5 7.5-8.1 11.9-19.7 6.3-16.8 21.4-35.9 36.4-46 3.9-2.6 8.9-7 11.1-9.6 4-4.8 4.2-4.9 9.9-4.9 3.2 0 8.7-0.6 12.2-1.4 3.5-0.8 9.5-1.8 13.3-2.1 12.6-1.2 24.9-5.8 33.2-12.4 2.9-2.2 7.6-5.4 10.5-6.9 7.7-4.2 12.6-10.5 13.8-17.8 1.7-9.9 2.5-49.4 1.1-53.6-1.1-3.4-1.6-3.7-6.4-4.5-5.1-0.8-5.2-0.9-6-4.8-0.4-2.2-1.4-6.9-2.2-10.5-2-8.8-1.9-10.3 1-13 2.5-2.3 2.5-2.5 2.5-19.2v-17l3.9-6.7c2.2-3.7 4.7-7.3 5.5-8.1 0.9-0.7 1.6-1.8 1.6-2.5 0-2.3 11.8-16.9 15.7-19.5 2.1-1.4 4-2.8 4.3-3.1 0.9-1.2 14.5-6.7 17.5-7.2 5.8-0.8 7.8-0.7 13.9 0.8zm-134.8 315.6c-2.4 0.2-10 7.6-34.6 33.7-15.1 16-26.8 26.2-30 26.2-0.5 0-2.9 2.5-5.3 5.5-4.3 5.2-4.5 5.6-3.6 9.6 0.5 2.2 1.7 5.5 2.5 7.1 3 5.8 4.4 11 5.9 22.6 2.3 17.7 3.1 19.6 14.7 35 3.1 4 6.2 8.5 6.9 10 5.5 10.9 11.2 13.2 32.6 13.2 14.8 0 15.1 0 15.7-2.3 0.3-1.2 1.3-9.9 2.1-19.2 0.9-9.4 2.7-22.4 4.1-29 4.1-19.7 5.4-28.4 6-40 0.6-10.5 0.4-11.5-2.7-21-3-9.3-3.3-11-3.4-24.5-0.1-15.8-0.7-18.1-5.9-23.8-1.7-1.8-3.9-3.1-5-3.1zm231.1 72.8c-5.3 3-8.2 5.2-8.9 7-2 5.1-2.2 22.2-0.3 34.3 1 6.7 1.5 13.7 1.1 16.9-0.3 3-0.8 10.5-1.2 16.6-0.5 9.3-0.4 11.4 0.8 11.8 0.8 0.3 6.6 0.2 13-0.4 10.5-0.8 12.2-1.2 18.7-4.6 7.4-3.9 19.4-15.4 28.4-27.2l3.9-5.3-2.2-5.5c-1.2-3-2.6-5.8-3.1-6-0.9-0.6-15.3-29.8-16.4-33.5-1.7-5.4-4.7-10-7.5-11.5-5.8-3-9.4-2-26.3 7.4zm226.4 17.6c-1.8 6-4.5 15.3-6.1 20.5-1.6 5.2-3.5 12.6-4.1 16.5-1.4 8.9-1.4 36.2 0 44 3.7 20.6 5.6 25.7 11.9 30.8 2.6 2.1 6.9 5.6 9.7 7.9 8.6 7.1 16.6 9.9 23.2 8.2 3.4-0.9 25.3-30.3 29.4-39.4 0.8-1.9 4.8-10 8.8-18 9.8-19.7 9.8-19.2-2.6-31.7-5.4-5.4-12.7-11.8-16.3-14.3-8.7-6.1-18-14.9-25.3-24-3.3-4.1-8.1-9.6-10.6-12.3-8.4-8.7-13-5.7-18 11.8zm-161.5 84.5c-3.3 0-10.5 5-15.8 11.1-12.2 14-16.5 16.5-32.2 18.8-6.2 1-11.8 2.1-12.4 2.5-0.8 0.5-1.2 3.7-1.2 9.1 0 8.3 1.2 13.4 4.7 19.9 1 1.8 1.9 6.9 2.3 13 0.3 5.6 1 10.8 1.5 11.5 0.4 0.8 1.6 5.1 2.6 9.5 3.8 17.7 5.8 27.4 6.9 33.6 3 17.4 5 27.8 5.9 30.7 0.5 1.7 1.2 7.1 1.6 12 0.7 8.5 2.7 14.9 4.4 13.9 0.5-0.3 1.1-4.5 1.5-9.3 0.6-7.8 2.8-16.7 5.5-22.8 1.7-3.9 6.1-18.2 9.5-31 2.1-8 5.6-17.5 9-24.8 3.1-6.4 5.6-12.4 5.6-13.2 0-0.9 1-4.4 2.1-7.8 1.2-3.4 2.6-8 3.1-10.2 0.5-2.2 1.3-5.6 1.8-7.5 5.6-21.6 6.1-24.6 5.1-28-0.6-1.9-2.2-7.8-3.6-13-1.4-5.2-3.3-11.4-4.1-13.8-1.2-3.2-2.1-4.2-3.8-4.2zm-28.7 251.6c-0.9-0.8-1 2.6-0.6 14.9 0.7 17.4 2.3 47.7 3.2 59.2l0.6 7.2-7.3 2.2c-4 1.2-7.7 2.5-8.2 2.9-1.4 1.3 2.4 31.2 4.5 35.2 0.5 1 0.9 2.3 0.9 3 0 1.3 7.1 19.7 10.3 26.8 0.8 1.9 2.6 6.1 3.8 9.2 1.3 3.2 2.8 5.8 3.5 5.8 1.7 0 3.4-7.6 4-18.3 0.7-10.3-1.1-32.2-5.6-69.2-2.6-21.6-3.6-31-6.9-67.4-0.6-5.7-1.5-10.9-2.2-11.5z"/></svg>