<svg version="1.2" xmlns="http://www.w3.org/2000/svg" viewBox="0 0 1280 1280" width="60" height="60">
	<title>dinero-svg-svg</title>
	<style>
		.s0 { fill: #000000 } 
	</style>
	<g id="Layer">
		<path id="Layer" fill-rule="evenodd" class="s0" d="m706.2 23.1c8.7 1.8 13.4 5.1 18.9 13.6 2.7 4.2 4.9 8.3 4.9 9.2 0 0.9-1.1 23-2.4 49.1-1.4 26.1-2.2 47.8-2 48.2 0.3 0.4 5.8 0.8 12.2 0.8 61.5 0.1 125.3 9.7 185.9 28.1 16.8 5.1 47.2 15.6 48.5 16.8 0.6 0.5-7.1 163.9-8.6 181.7-0.7 8.7-4 16.8-8.3 20.3-4.8 3.9-13.4 6.6-21.5 6.6-11 0-10.4 0.7-53.5-59.6-21.1-29.4-39.4-54.8-40.8-56.6-2.1-2.6-4.5-3.9-13.7-6.8-15.2-4.9-35.7-9.8-58.3-13.9-29-5.3-42.4-7.1-43.5-6-0.6 0.6-1.5 13.8-2 30-2.1 59.7-8 254.7-8 263.3v8.9l8.3 2.2c55.8 14.7 107.9 34.6 145.4 55.5 68.8 38.3 105.7 83.9 116.9 145 2.6 14 2.6 54 0.1 70.4-11 70-49.5 129.1-115.8 177.3-43 31.4-96.4 53.6-154.7 64.3-7.5 1.4-14 2.9-14.4 3.3-0.5 0.5-1.3 18.6-1.8 40.3-0.6 21.6-1.5 43.9-2.1 49.3-4 37.8-24 73.3-47.4 84.6-7.8 3.7-13.3 4.9-22.4 5-13.4 0-18.9-4.6-22.7-19-1.5-5.7-1.8-14.8-2.3-77l-0.6-70.5-9.5 0.2c-5.2 0.2-17.8-0.2-28-0.7-44.4-2.4-87.5-12.3-134.5-30.7-17.8-7-53.9-24.7-71.8-35.2-18.6-11-39.7-24.8-40.2-26.3-0.2-0.7-1.2-16.9-2.3-36-2.5-44-1.9-48.2 7.5-55.4 6.8-5.1 16.3-2.7 47.3 12.1 66.5 31.7 123.2 50 181.6 58.4 16.6 2.4 45.4 4.7 47.8 3.8 1.5-0.6 1.6-10.7 1.4-132.9l-0.3-132.3-7.5-1.8c-47.8-11.3-96.7-28.2-133.5-46.2-109-53.4-161.5-130.1-158.2-231 1.2-36 7.8-62.7 23.2-94.1 18.2-37.1 45.4-69 85.4-100.2 45.9-35.8 104.4-63.3 172.2-80.9l18.4-4.8 0.3-48.8c0.1-26.8 0.4-48.7 0.6-48.7 0.2 0 18.3-7 40.2-15.6 22-8.5 42.4-16.1 45.4-16.9 6.9-1.7 13.4-1.8 20.2-0.4zm-108.7 235.2c-2.2-0.2-13.5 2.4-27 6.3-40.9 11.9-81.9 36.8-102.3 62-9.2 11.3-18.2 29.1-21.8 42.9-3.8 14.2-4.5 39.5-1.6 53.7 3.9 19 11.5 33 25.7 47.4 20.5 20.9 55.4 39.4 104.9 55.8 9.3 3.1 18.6 5.9 20.7 6.2l3.9 0.7-0.2-137.4c-0.3-136.6-0.3-137.4-2.3-137.6zm114.1 474.7c-2.2 0-2.5 0.5-3 5.2-0.3 2.9-1.7 53.2-3.1 111.8-1.4 58.6-2.7 109.2-2.9 112.5-0.7 8.3 0 9.1 6 7.6 9.5-2.4 32.1-11.4 46.9-18.6 23.1-11.3 42.2-24.3 57.3-38.9 19-18.4 28.5-36.9 31.2-60.9 2.9-25.3-6.8-48.2-28.3-66.5-17.8-15.3-51.5-33.6-83.9-45.6-9.8-3.6-18.9-6.6-20.2-6.6z"/>
	</g>
</svg>