<svg version="1.2" xmlns="http://www.w3.org/2000/svg" viewBox="0 0 1280 1206" width="200" height="200"><style></style><path  d="m639.2 1.3c2.2 0.3 4.7 1.2 5.6 2 0.9 0.8 93.5 82.4 205.7 181.3 112.2 98.9 254 223.9 315 277.7 61.1 53.8 111.4 98.4 111.9 99.1 0.7 1-7.9 11.3-31.4 37.7-30.7 34.6-32.5 36.4-35.8 36.4-3.2 0-25.1-19.1-285.6-249.9-155.1-137.4-282.9-250.5-283.8-251.3-1-0.9-2.2-1.2-3.1-0.6-1.1 0.6-449.2 395.5-555.6 489.5-7.9 7.1-14.7 12.8-15 12.8-0.9 0-64.5-72-64.9-73.4-0.1-0.6 16.3-15.8 36.5-33.6 20.2-17.9 58.4-51.6 84.8-75 390.1-345.5 488-432.2 498.9-441.8 12.6-11.2 13-11.4 16.8-10.9z"/><path  d="m638.6 218c1.8 0-6.5-7.2 230.9 202.2l218 192.3v286 286l-2.3 5.7c-3.2 7.9-6.2 12-10.2 14-3.2 1.6-14.1 1.7-149.2 1.8h-145.7l-0.3-126.8-0.3-126.7-2.6-5.5c-3.1-6.6-7.8-11.5-13.9-14.4l-4.5-2.1h-120c-119.7 0-120 0-124.5 2.1-6.7 3.1-10.6 6.8-13.7 13.2l-2.8 5.7-0.3 127.3-0.2 127.2h-141.3c-140.6 0-141.2 0-146.7-2.1-7.3-2.8-11.4-6-14.7-11.7l-2.8-4.7-0.3-287.1-0.2-287.1 212.2-187.9c116.7-103.3 217.2-192.3 223.2-197.7 6.1-5.3 11.5-9.7 12.2-9.7z"/></svg>