<?xml version="1.0" standalone="no"?>
<!DOCTYPE svg PUBLIC "-//W3C//DTD SVG 20010904//EN"
 "http://www.w3.org/TR/2001/REC-SVG-20010904/DTD/svg10.dtd">
<svg version="1.0" xmlns="http://www.w3.org/2000/svg"
 width="600.000000pt" height="359.000000pt" viewBox="0 0 600.000000 359.000000"
 preserveAspectRatio="xMidYMid meet">

<g transform="translate(0.000000,359.000000) scale(0.100000,-0.100000)"
fill="#000000" stroke="none">
<path d="M2040 3273 c0 -13 5 -23 10 -23 13 0 13 11 0 30 -8 12 -10 11 -10 -7z"/>
<path d="M2106 3266 c10 -8 21 -12 24 -10 5 6 -21 24 -34 24 -6 0 -1 -6 10
-14z"/>
<path d="M2256 3264 c-10 -25 1 -29 14 -5 6 12 7 21 1 21 -5 0 -12 -7 -15 -16z"/>
<path d="M2300 3255 c-7 -9 -8 -15 -2 -15 5 0 12 7 16 15 3 8 4 15 2 15 -2 0
-9 -7 -16 -15z"/>
<path d="M2337 3263 c-4 -3 -7 -11 -7 -17 0 -6 5 -5 12 2 6 6 9 14 7 17 -3 3
-9 2 -12 -2z"/>
<path d="M2420 3251 c-6 -12 -7 -21 -1 -21 10 0 24 30 17 37 -2 3 -9 -5 -16
-16z"/>
<path d="M2356 3245 c-3 -8 -1 -15 3 -15 5 0 11 7 15 15 3 8 1 15 -3 15 -5 0
-11 -7 -15 -15z"/>
<path d="M2450 3245 c-8 -9 -8 -15 -2 -15 12 0 26 19 19 26 -2 2 -10 -2 -17
-11z"/>
<path d="M2501 3246 c-8 -9 -11 -19 -7 -23 9 -9 29 13 24 27 -2 8 -8 7 -17 -4z"/>
<path d="M2550 3246 c0 -2 7 -7 16 -10 8 -3 12 -2 9 4 -6 10 -25 14 -25 6z"/>
<path d="M1965 3160 l-39 -40 72 0 c40 0 72 -4 72 -8 0 -26 -61 -44 -75 -22
-8 13 -95 13 -95 1 0 -41 163 -58 221 -24 61 36 39 73 -43 73 -26 0 -48 5 -48
10 0 6 30 10 69 10 46 0 72 5 80 14 9 11 4 15 -26 20 -21 3 -63 6 -93 6 -52 0
-59 -3 -95 -40z"/>
<path d="M2325 3165 c-16 -8 -42 -14 -56 -15 -15 0 -29 -7 -33 -15 -4 -11 2
-15 24 -15 36 0 35 0 10 -43 l-20 -34 36 -6 c21 -4 41 -4 45 -2 8 6 79 130 79
139 0 11 -54 5 -85 -9z"/>
<path d="M3405 3147 c-4 -10 -5 -21 -1 -24 10 -10 18 4 13 24 -4 17 -4 17 -12
0z"/>
<path d="M3460 3131 c0 -5 7 -12 16 -15 24 -9 27 -7 10 9 -17 17 -26 19 -26 6z"/>
<path d="M3592 3099 c-7 -12 -11 -24 -8 -27 6 -6 35 27 36 41 0 14 -15 7 -28
-14z"/>
<path d="M3223 3098 c-13 -6 -23 -17 -23 -23 0 -15 61 -26 75 -14 14 14 61 11
75 -5 13 -17 -6 -21 -116 -29 -34 -3 -74 -12 -90 -20 l-29 -15 25 -10 c14 -5
52 -15 85 -22 33 -6 78 -16 100 -20 29 -7 44 -6 53 4 10 10 1 16 -50 31 l-63
19 79 6 c60 5 82 10 92 25 12 16 12 21 -2 36 -36 40 -160 62 -211 37z"/>
<path d="M3633 3085 c-9 -25 4 -29 17 -6 7 15 7 21 0 21 -6 0 -13 -7 -17 -15z"/>
<path d="M3672 3080 c-8 -13 -8 -20 -2 -20 6 0 13 7 17 15 9 24 -1 27 -15 5z"/>
<path d="M3733 3078 c18 -6 26 -15 23 -24 -6 -16 10 -19 19 -3 9 13 -24 39
-50 38 -15 0 -13 -3 8 -11z"/>
<path d="M3796 3055 c-3 -8 -1 -15 4 -15 6 0 10 7 10 15 0 8 -2 15 -4 15 -2 0
-6 -7 -10 -15z"/>
<path d="M3850 3050 c0 -5 5 -10 10 -10 6 0 10 5 10 10 0 6 -4 10 -10 10 -5 0
-10 -4 -10 -10z"/>
<path d="M3820 3030 c0 -6 7 -10 15 -10 8 0 15 2 15 4 0 2 -7 6 -15 10 -8 3
-15 1 -15 -4z"/>
<path d="M3896 3031 c-18 -7 -18 -8 -2 -14 19 -8 36 -1 36 14 0 10 -7 11 -34
0z"/>
<path d="M3606 3023 c-4 -4 -30 -7 -58 -8 -58 0 -76 -19 -29 -30 17 -4 31 -10
31 -13 -1 -4 -14 -23 -31 -42 l-30 -35 42 -12 c24 -7 44 -12 45 -10 1 1 26 33
54 72 50 68 51 70 28 76 -33 10 -44 10 -52 2z"/>
<path d="M3830 2953 c-66 -5 -88 -20 -42 -29 38 -8 40 -21 7 -60 -27 -31 -23
-37 32 -49 27 -5 34 -3 50 22 9 15 20 30 23 33 3 3 16 21 28 41 20 32 20 37 6
43 -8 3 -23 5 -32 4 -9 -1 -42 -3 -72 -5z"/>
<path d="M1790 2900 c0 -11 5 -20 10 -20 6 0 10 9 10 20 0 11 -4 20 -10 20 -5
0 -10 -9 -10 -20z"/>
<path d="M1850 2905 c0 -14 29 -35 35 -26 3 6 -4 15 -15 21 -11 6 -20 8 -20 5z"/>
<path d="M2016 2884 c-9 -24 -7 -28 9 -14 17 14 20 30 6 30 -5 0 -12 -7 -15
-16z"/>
<path d="M2065 2879 c-11 -17 1 -21 15 -4 8 9 8 15 2 15 -6 0 -14 -5 -17 -11z"/>
<path d="M2097 2876 c-4 -10 -1 -13 9 -9 7 3 14 -1 14 -8 0 -7 2 -10 5 -7 7 7
-5 38 -15 38 -4 0 -10 -7 -13 -14z"/>
<path d="M2147 2865 c3 -8 9 -12 14 -9 12 7 11 11 -5 17 -10 4 -13 1 -9 -8z"/>
<path d="M2190 2870 c-8 -5 -12 -12 -9 -15 4 -3 12 1 19 10 14 17 11 19 -10 5z"/>
<path d="M2227 2873 c-4 -3 -7 -11 -7 -17 0 -6 5 -5 12 2 6 6 9 14 7 17 -3 3
-9 2 -12 -2z"/>
<path d="M2275 2860 c-4 -6 -11 -8 -16 -5 -14 9 -11 -1 5 -14 12 -10 17 -8 26
8 11 21 -3 31 -15 11z"/>
<path d="M2320 2861 c0 -10 30 -24 37 -17 3 2 -5 9 -16 16 -12 6 -21 7 -21 1z"/>
<path d="M1710 2790 l-45 -40 35 -1 c19 -1 51 -2 72 -3 44 -1 55 -10 38 -31
-14 -17 -65 -20 -75 -5 -8 13 -95 13 -95 -1 0 -37 170 -53 230 -20 49 26 49
61 0 78 l-35 12 48 0 c33 1 49 6 54 16 3 9 4 17 2 19 -2 2 -44 7 -94 10 l-90
6 -45 -40z m113 -7 c-7 -2 -19 -2 -25 0 -7 3 -2 5 12 5 14 0 19 -2 13 -5z"/>
<path d="M4810 2790 c0 -11 2 -20 4 -20 2 0 6 9 9 20 3 11 1 20 -4 20 -5 0 -9
-9 -9 -20z"/>
<path d="M2003 2784 c-50 -21 -50 -34 1 -34 25 0 48 5 51 10 10 16 75 12 75
-5 0 -15 -28 -25 -139 -50 -67 -14 -108 -40 -80 -49 8 -2 65 -9 128 -16 113
-11 130 -8 131 21 0 10 -40 19 -82 19 -21 0 -38 5 -38 10 0 6 22 10 49 10 26
0 62 5 80 11 33 12 59 46 44 59 -34 30 -164 39 -220 14z"/>
<path d="M3120 2778 c0 -19 2 -20 10 -8 13 19 13 30 0 30 -5 0 -10 -10 -10
-22z"/>
<path d="M4870 2785 c0 -8 27 -35 34 -35 14 0 4 20 -14 30 -11 6 -20 8 -20 5z"/>
<path d="M3192 2761 c7 -11 16 -17 20 -14 10 5 -10 33 -23 33 -5 0 -4 -9 3
-19z"/>
<path d="M3317 2740 c-9 -13 -14 -26 -12 -29 9 -8 38 26 33 40 -3 8 -10 5 -21
-11z"/>
<path d="M5013 2748 c-19 -25 -24 -38 -14 -38 11 0 35 39 28 46 -2 3 -9 -1
-14 -8z"/>
<path d="M2921 2723 l-34 -17 39 -13 c25 -9 41 -10 48 -3 13 13 73 13 82 -1
12 -20 -14 -31 -97 -40 -83 -9 -139 -25 -139 -39 0 -4 54 -22 120 -40 98 -27
122 -31 135 -20 24 20 18 27 -36 41 -59 15 -45 27 34 28 33 1 53 7 67 21 35
35 25 50 -53 79 -69 25 -120 26 -166 4z"/>
<path d="M3362 2728 c-7 -7 -12 -16 -12 -20 0 -15 15 -8 28 12 13 22 3 27 -16
8z"/>
<path d="M4606 2720 c-140 -28 -150 -43 -46 -75 54 -16 80 -35 48 -35 -20 0 4
-16 41 -29 29 -9 37 -8 52 5 10 9 23 13 29 9 6 -4 18 -1 26 6 11 9 12 14 3 20
-13 8 2 39 36 73 15 15 14 17 -12 27 -49 18 -75 18 -177 -1z m68 -40 c-18 -18
-24 -19 -54 -8 -34 12 -35 12 -10 19 14 4 38 7 55 8 l29 1 -20 -20z"/>
<path d="M5050 2720 c-7 -13 -7 -20 -1 -20 6 0 15 9 21 20 7 13 7 20 1 20 -6
0 -15 -9 -21 -20z"/>
<path d="M3396 2714 c-4 -10 -1 -14 6 -12 15 5 23 28 10 28 -5 0 -13 -7 -16
-16z"/>
<path d="M3456 2713 c12 -10 23 -24 26 -31 2 -10 8 -8 22 7 17 19 17 19 -5 14
-15 -4 -20 -3 -15 5 4 7 3 12 -3 12 -5 0 -18 3 -28 6 -15 5 -15 3 3 -13z"/>
<path d="M5090 2715 c-8 -9 -8 -15 -2 -15 12 0 26 19 19 26 -2 2 -10 -2 -17
-11z"/>
<path d="M5115 2699 c-4 -6 -4 -13 -1 -16 3 -4 6 -1 6 5 0 7 7 12 16 12 8 0
12 -4 9 -10 -3 -5 -2 -10 4 -10 17 0 21 18 5 24 -22 9 -32 7 -39 -5z"/>
<path d="M3520 2685 c-20 -24 -6 -28 15 -5 10 11 13 20 8 20 -6 0 -16 -7 -23
-15z"/>
<path d="M3578 2694 c6 -3 9 -10 6 -16 -4 -6 -1 -9 5 -7 19 7 14 24 -6 26 -10
2 -12 0 -5 -3z"/>
<path d="M5213 2692 c-7 -4 -9 -13 -4 -21 6 -9 11 -10 15 -2 4 6 4 11 -1 11
-4 0 -1 5 7 10 8 5 11 10 5 10 -5 0 -15 -4 -22 -8z"/>
<path d="M5276 2674 c-11 -28 -6 -39 9 -20 8 11 15 23 15 28 0 14 -18 9 -24
-8z"/>
<path d="M4847 2662 c-11 -12 -13 -22 -7 -32 8 -12 2 -16 -28 -20 -31 -4 -37
-9 -40 -31 -2 -18 4 -30 20 -41 31 -20 136 -48 179 -48 45 0 82 26 76 52 -4
13 1 22 18 28 37 14 41 31 11 56 -56 48 -198 71 -229 36z m151 -50 c4 -13 -20
-15 -55 -6 -27 7 -30 21 -5 26 22 6 55 -6 60 -20z m-53 -45 c10 -8 15 -19 11
-25 -15 -25 -86 -5 -86 23 0 19 49 20 75 2z"/>
<path d="M3650 2659 c0 -6 -9 -9 -20 -6 -24 6 -25 1 -4 -21 15 -15 18 -14 30
3 16 22 18 35 4 35 -5 0 -10 -5 -10 -11z"/>
<path d="M5312 2658 c-7 -7 -12 -16 -12 -20 0 -15 15 -8 28 12 13 22 3 27 -16
8z"/>
<path d="M5347 2646 c-10 -14 -13 -26 -8 -26 13 0 33 28 29 41 -2 6 -12 0 -21
-15z"/>
<path d="M3550 2650 c8 -5 22 -10 30 -10 13 0 13 1 0 10 -8 5 -22 10 -30 10
-13 0 -13 -1 0 -10z"/>
<path d="M3266 2641 c-34 -4 -61 -11 -64 -18 -2 -8 6 -13 22 -13 37 0 39 -13
6 -59 -17 -22 -30 -43 -30 -45 0 -2 12 -7 28 -10 15 -4 34 -9 43 -12 11 -3 30
16 60 58 24 35 50 69 57 77 13 13 12 16 -4 22 -21 8 -32 8 -118 0z"/>
<path d="M3493 2586 c-18 -8 -33 -20 -33 -25 0 -15 72 -33 84 -21 13 13 73 13
81 -1 11 -17 -1 -22 -100 -34 -102 -13 -167 -41 -130 -56 11 -4 31 -8 45 -8
14 -1 66 -13 115 -27 84 -24 90 -25 102 -8 18 24 10 30 -48 37 -75 9 -87 27
-19 27 104 0 153 27 130 70 -23 43 -169 72 -227 46z"/>
<path d="M5265 2579 c-4 -6 -29 -9 -56 -8 -50 3 -77 -10 -65 -30 4 -6 15 -11
25 -11 31 0 31 -11 1 -55 l-29 -43 45 -12 c45 -13 46 -12 70 15 13 15 24 31
24 35 0 3 16 24 35 46 19 21 35 42 35 46 0 6 -55 28 -71 28 -4 0 -11 -5 -14
-11z"/>
<path d="M1510 2500 c0 -11 5 -20 10 -20 6 0 10 9 10 20 0 11 -4 20 -10 20 -5
0 -10 -9 -10 -20z"/>
<path d="M1570 2512 c0 -4 9 -13 20 -20 22 -13 27 -3 8 16 -14 14 -28 16 -28
4z"/>
<path d="M1746 2485 c-9 -14 -12 -25 -7 -25 5 0 16 11 25 25 9 14 12 25 7 25
-5 0 -16 -11 -25 -25z"/>
<path d="M1802 2488 c-7 -7 -12 -19 -12 -27 0 -11 5 -8 16 7 18 25 15 39 -4
20z"/>
<path d="M1831 2474 c-12 -27 -11 -28 4 -12 10 9 16 21 13 28 -2 7 -10 -1 -17
-16z"/>
<path d="M1866 2471 c-12 -13 -14 -21 -7 -26 6 -3 11 1 11 9 0 9 5 16 10 16 6
0 10 -8 10 -17 0 -13 3 -14 11 -6 9 9 8 16 -3 27 -14 14 -17 13 -32 -3z"/>
<path d="M1926 2464 c-10 -25 1 -29 14 -5 6 12 7 21 1 21 -5 0 -12 -7 -15 -16z"/>
<path d="M1962 2460 c-7 -11 -8 -20 -2 -20 5 0 14 9 20 20 6 11 7 20 3 20 -5
0 -14 -9 -21 -20z"/>
<path d="M2025 2460 c-10 -11 -16 -23 -13 -26 7 -6 38 24 38 37 0 13 -5 11
-25 -11z"/>
<path d="M2072 2463 c-16 -6 -5 -23 16 -23 14 0 14 2 3 9 -11 7 -9 10 10 14
18 3 19 4 4 5 -11 0 -26 -2 -33 -5z"/>
<path d="M1424 2388 l-45 -48 33 -2 c18 -1 48 -1 66 1 19 1 40 -3 48 -10 13
-10 12 -14 -2 -30 -21 -23 -57 -25 -78 -4 -15 15 -106 22 -106 8 1 -50 167
-74 247 -36 31 15 38 23 38 48 0 33 -20 42 -93 44 -29 1 -41 5 -36 12 5 8 30
10 80 5 67 -5 74 -4 85 15 6 11 9 22 7 23 -2 2 -47 7 -101 12 l-98 9 -45 -47z"/>
<path d="M4465 2409 c-4 -12 -3 -25 3 -31 6 -6 11 1 14 21 5 35 -7 42 -17 10z"/>
<path d="M4527 2403 c-3 -5 3 -18 13 -31 10 -12 21 -19 23 -15 3 5 -3 18 -13
31 -10 12 -21 19 -23 15z"/>
<path d="M1753 2387 c-18 -6 -38 -18 -45 -26 -11 -11 -1 -13 62 -9 41 3 81 3
88 1 22 -8 2 -23 -33 -23 -42 0 -55 -27 -19 -40 14 -6 22 -14 19 -20 -9 -15
-67 -11 -89 5 -25 19 -82 19 -89 1 -13 -33 58 -66 139 -66 90 0 156 40 134 81
-7 12 -3 19 15 27 59 27 8 72 -88 78 -35 2 -76 -2 -94 -9z"/>
<path d="M2795 2382 c-14 -10 -12 -45 3 -50 8 -2 12 7 12 27 0 34 0 34 -15 23z"/>
<path d="M2850 2363 c1 -11 26 -43 34 -43 11 0 6 21 -8 36 -16 15 -26 18 -26
7z"/>
<path d="M4665 2340 c-10 -11 -14 -20 -8 -20 5 0 18 9 28 20 10 11 14 20 8 20
-5 0 -18 -9 -28 -20z"/>
<path d="M4233 2336 c-84 -15 -137 -66 -69 -66 20 0 94 -25 105 -36 2 -2 -2
-10 -9 -19 -7 -9 -10 -18 -7 -21 12 -12 87 -16 100 -6 7 6 22 9 33 6 12 -3 26
1 34 11 12 15 12 19 -2 29 -14 10 -11 16 18 50 19 22 34 43 34 46 0 22 -134
25 -237 6z m95 -45 c-15 -24 -26 -26 -65 -9 l-28 11 50 12 c28 7 51 11 53 9 2
-1 -3 -11 -10 -23z"/>
<path d="M4726 2337 c-11 -8 -17 -20 -14 -27 2 -8 10 -3 21 14 20 30 19 32 -7
13z"/>
<path d="M2991 2310 c-15 -21 -18 -30 -8 -30 14 0 44 46 35 55 -2 3 -14 -9
-27 -25z"/>
<path d="M4755 2320 c-10 -11 -16 -23 -13 -26 7 -6 38 24 38 37 0 13 -5 11
-25 -11z"/>
<path d="M2574 2298 l-28 -23 43 -7 c26 -4 51 -3 63 3 24 13 78 2 78 -16 0
-15 -18 -19 -132 -34 -72 -10 -128 -27 -128 -40 0 -3 57 -23 127 -43 118 -34
129 -36 145 -21 10 9 18 19 18 23 0 4 -28 15 -62 25 l-63 19 77 6 c80 6 118
26 118 59 -1 60 -194 97 -256 49z"/>
<path d="M3045 2300 c-10 -11 -15 -23 -12 -27 7 -6 36 25 37 40 0 11 -6 8 -25
-13z"/>
<path d="M4786 2304 c-9 -8 -13 -20 -10 -25 3 -6 7 -9 8 -7 0 2 10 13 20 26
22 25 6 31 -18 6z"/>
<path d="M3080 2291 c-7 -15 -7 -21 0 -21 12 0 25 28 17 36 -3 3 -10 -4 -17
-15z"/>
<path d="M3133 2293 c9 -2 17 -8 17 -13 0 -5 7 -7 16 -3 13 5 13 7 2 14 -7 5
-22 8 -33 8 -17 -1 -17 -2 -2 -6z"/>
<path d="M4818 2288 c-7 -16 18 -35 30 -23 3 3 0 5 -6 5 -6 0 -12 8 -14 18 -3
15 -4 16 -10 0z"/>
<path d="M4885 2290 c3 -5 1 -10 -5 -10 -6 0 -8 -5 -5 -10 5 -8 11 -7 21 1 19
15 18 29 -2 29 -8 0 -12 -4 -9 -10z"/>
<path d="M4517 2279 c-13 -8 -17 -18 -13 -35 6 -21 3 -24 -22 -24 -34 0 -65
-30 -56 -54 26 -67 271 -104 290 -44 3 11 1 25 -5 31 -9 9 -3 14 21 23 41 13
43 39 7 67 -44 32 -190 56 -222 36z m138 -42 c20 -16 13 -37 -13 -37 -24 0
-64 29 -57 41 9 13 48 11 70 -4z m-40 -77 c0 -24 -79 -21 -83 3 -3 16 2 18 40
15 30 -2 43 -7 43 -18z"/>
<path d="M3181 2271 c-7 -5 -12 -14 -10 -20 3 -7 11 -3 21 9 18 21 13 26 -11
11z"/>
<path d="M4945 2270 c-3 -5 -3 -15 1 -21 6 -11 23 6 24 24 0 10 -18 9 -25 -3z"/>
<path d="M3205 2250 c-10 -11 -14 -20 -8 -20 5 0 18 9 28 20 10 11 14 20 8 20
-5 0 -18 -9 -28 -20z"/>
<path d="M3268 2263 c10 -4 10 -8 1 -19 -7 -8 -7 -14 -1 -14 14 0 33 25 25 33
-3 4 -13 7 -22 6 -11 0 -12 -2 -3 -6z"/>
<path d="M4996 2257 c-11 -8 -17 -20 -14 -27 2 -8 10 -3 21 14 20 30 19 32 -7
13z"/>
<path d="M5020 2230 c-6 -11 -7 -20 -2 -20 10 0 32 21 32 32 0 16 -19 8 -30
-12z"/>
<path d="M3336 2225 c-3 -9 -12 -12 -23 -8 -17 7 -17 6 0 -11 21 -21 42 -16
50 13 6 24 -18 30 -27 6z"/>
<path d="M2990 2220 c-8 -6 -34 -7 -57 -4 -35 5 -43 3 -52 -15 -11 -19 -9 -21
17 -21 16 0 32 -3 35 -6 6 -6 -23 -55 -50 -82 -20 -20 -16 -29 15 -35 15 -3
34 -8 43 -12 12 -4 33 16 77 75 34 44 62 84 62 89 0 19 -66 27 -90 11z"/>
<path d="M3235 2220 c3 -5 16 -10 28 -10 18 0 19 2 7 10 -20 13 -43 13 -35 0z"/>
<path d="M4813 2180 c-33 -13 -28 -27 13 -40 28 -10 41 -10 59 0 28 15 80 1
80 -21 0 -11 -25 -15 -115 -19 -107 -5 -167 -20 -156 -39 5 -7 44 -21 210 -72
68 -21 70 -21 83 -3 13 18 9 21 -54 44 l-68 25 86 5 c89 5 119 18 119 51 0 52
-179 100 -257 69z"/>
<path d="M3180 2152 l-24 -20 34 -8 c19 -4 53 -7 75 -6 40 2 75 -11 63 -23 -4
-4 -23 -8 -44 -8 -45 -2 -56 -23 -19 -37 35 -13 27 -34 -16 -38 -26 -3 -38 2
-54 21 -26 31 -80 50 -94 33 -38 -45 60 -101 177 -101 65 0 76 3 93 23 14 18
16 28 9 43 -8 14 -7 19 3 19 21 0 48 35 41 53 -10 27 -94 61 -159 65 -49 3
-65 0 -85 -16z"/>
<path d="M1217 2083 c-11 -10 -8 -53 3 -53 6 0 10 14 10 30 0 31 -2 35 -13 23z"/>
<path d="M1277 2072 c-3 -4 3 -17 13 -30 22 -26 36 -12 18 18 -13 21 -24 25
-31 12z"/>
<path d="M1461 2023 c-13 -28 -13 -28 8 -9 22 20 27 36 13 36 -5 0 -14 -12
-21 -27z"/>
<path d="M1526 2037 c-11 -8 -17 -20 -14 -27 2 -8 10 -3 21 14 20 30 19 32 -7
13z"/>
<path d="M1560 2040 c0 -7 -8 -22 -17 -33 -17 -19 -17 -20 4 -8 29 15 38 30
24 44 -8 8 -11 7 -11 -3z"/>
<path d="M1595 2020 c-3 -5 -2 -10 4 -10 5 0 13 5 16 10 3 6 2 10 -4 10 -5 0
-13 -4 -16 -10z"/>
<path d="M1657 2012 c-18 -20 -22 -32 -9 -32 10 1 45 50 34 50 -5 0 -16 -8
-25 -18z"/>
<path d="M1692 2008 c-14 -14 -16 -28 -3 -28 9 0 24 30 18 36 -2 2 -9 -2 -15
-8z"/>
<path d="M1610 1995 c-8 -9 -8 -15 -2 -15 12 0 26 19 19 26 -2 2 -10 -2 -17
-11z"/>
<path d="M1750 2000 c0 -5 -10 -10 -22 -10 -21 0 -21 0 -3 -14 23 -17 41 -11
48 15 3 12 0 19 -9 19 -8 0 -14 -4 -14 -10z"/>
<path d="M1806 2001 c-17 -7 -16 -9 8 -24 22 -15 26 -15 26 -2 0 8 -6 15 -12
16 -7 1 -2 5 12 9 20 6 21 8 5 8 -11 0 -28 -3 -39 -7z"/>
<path d="M4090 1985 c0 -14 5 -25 10 -25 6 0 10 11 10 25 0 14 -4 25 -10 25
-5 0 -10 -11 -10 -25z"/>
<path d="M4155 1990 c-3 -6 3 -22 14 -35 12 -16 22 -22 26 -15 4 6 0 19 -9 29
-9 10 -13 21 -9 24 3 4 1 7 -5 7 -6 0 -14 -5 -17 -10z"/>
<path d="M1109 1929 c-30 -26 -51 -51 -47 -55 4 -4 39 -10 77 -13 78 -7 90
-13 71 -36 -16 -20 -79 -20 -86 0 -5 11 -21 15 -60 15 -58 0 -60 -1 -43 -32
17 -31 71 -48 158 -48 71 0 83 3 110 26 61 51 30 99 -71 113 -40 6 -48 10 -34
16 10 5 50 4 87 -1 61 -9 70 -8 84 9 9 10 15 20 13 22 -2 2 -49 10 -104 18
l-101 13 -54 -47z"/>
<path d="M1780 1960 c0 -5 5 -10 11 -10 5 0 7 5 4 10 -3 6 -8 10 -11 10 -2 0
-4 -4 -4 -10z"/>
<path d="M2433 1953 c-15 -5 -18 -49 -4 -57 5 -3 11 9 14 27 5 37 6 36 -10 30z"/>
<path d="M2495 1930 c-6 -10 15 -50 27 -50 12 0 10 28 -2 35 -6 4 -8 11 -5 16
4 5 2 9 -4 9 -5 0 -12 -4 -16 -10z"/>
<path d="M3949 1929 c-116 -12 -178 -29 -194 -52 -8 -11 -13 -22 -11 -24 2 -2
30 -10 62 -19 70 -18 79 -25 66 -51 -10 -17 -6 -21 35 -31 36 -10 48 -10 61 0
8 7 25 11 37 10 12 -2 28 4 35 14 12 14 12 18 -3 29 -16 11 -15 13 4 31 26 24
63 74 57 79 -12 12 -92 20 -149 14z m0 -64 c-22 -23 -28 -24 -58 -14 -46 16
-20 35 54 38 l30 1 -26 -25z"/>
<path d="M4300 1918 c-29 -32 -14 -37 18 -5 14 15 21 27 15 27 -7 0 -21 -10
-33 -22z"/>
<path d="M4357 1912 c-18 -20 -22 -32 -9 -32 10 1 45 50 34 50 -5 0 -16 -8
-25 -18z"/>
<path d="M1475 1880 c-49 -22 -97 -40 -105 -40 -9 0 -23 -13 -33 -29 l-17 -29
63 -11 c35 -6 71 -11 81 -11 14 0 15 -4 6 -21 -7 -11 -10 -22 -8 -24 2 -2 25
-6 51 -10 44 -7 49 -5 54 14 3 13 13 21 28 21 12 0 30 9 39 19 17 18 16 20 -4
26 -20 6 -20 8 11 61 17 31 29 57 26 60 -2 2 -26 7 -53 9 -41 4 -64 -2 -139
-35z m53 -49 c-9 -14 -23 -21 -45 -21 -41 0 -52 18 -16 25 15 4 37 10 48 14
26 11 29 7 13 -18z"/>
<path d="M4392 1895 c-14 -29 2 -34 18 -6 12 24 13 31 2 31 -5 0 -14 -11 -20
-25z"/>
<path d="M4429 1881 c-13 -11 -21 -22 -18 -26 4 -3 18 5 32 19 30 30 20 35
-14 7z"/>
<path d="M2668 1860 c-20 -36 -10 -39 20 -7 25 26 28 37 10 37 -7 0 -21 -14
-30 -30z"/>
<path d="M4526 1866 c4 -10 1 -16 -7 -16 -10 0 -10 -3 -1 -12 10 -10 15 -10
22 2 11 18 8 32 -8 38 -7 2 -10 -2 -6 -12z"/>
<path d="M2218 1852 c-21 -9 -38 -20 -38 -24 0 -4 18 -12 40 -18 33 -9 44 -8
65 6 21 14 30 14 55 4 36 -15 37 -24 8 -44 -15 -11 -45 -16 -92 -16 -79 0
-138 -15 -162 -41 -16 -17 -15 -19 12 -29 16 -7 43 -14 59 -17 17 -2 66 -16
109 -30 l79 -26 18 24 18 24 -70 20 c-38 11 -69 23 -69 26 0 3 37 9 82 13 91
8 138 29 138 62 0 28 -25 47 -89 67 -67 21 -115 21 -163 -1z"/>
<path d="M2725 1850 c-14 -16 -16 -23 -7 -32 9 -9 12 -9 12 2 0 7 7 22 17 32
9 10 12 18 6 18 -5 0 -18 -9 -28 -20z"/>
<path d="M4175 1861 c-11 -3 -29 -11 -40 -18 -17 -10 -18 -15 -7 -32 11 -19
10 -21 -17 -21 -16 0 -39 -9 -52 -19 -23 -19 -23 -21 -9 -46 23 -41 128 -85
203 -85 72 0 119 44 85 78 -9 9 -7 12 9 12 11 0 31 8 43 18 43 35 -4 80 -105
101 -83 18 -87 18 -110 12z m116 -60 l23 -18 -21 -12 c-34 -18 -95 12 -78 39
10 16 51 11 76 -9z m-52 -66 c18 -18 7 -45 -18 -45 -29 0 -71 21 -71 36 0 33
58 38 89 9z"/>
<path d="M4450 1855 c-8 -9 -8 -15 -2 -15 12 0 26 19 19 26 -2 2 -10 -2 -17
-11z"/>
<path d="M2758 1838 c-10 -12 -16 -24 -13 -26 6 -6 45 28 45 40 0 14 -14 8
-32 -14z"/>
<path d="M2825 1841 c18 -7 18 -9 -8 -26 -15 -10 -26 -20 -23 -22 2 -3 18 5
35 18 31 23 27 39 -9 38 -10 0 -8 -3 5 -8z"/>
<path d="M4589 1848 c-1 -2 -3 -13 -4 -26 -3 -28 15 -24 26 6 6 16 5 22 -6 22
-8 0 -16 -1 -16 -2z"/>
<path d="M4636 1821 c-10 -11 -16 -25 -14 -31 2 -6 14 3 26 19 25 34 15 42
-12 12z"/>
<path d="M2860 1809 c-19 -35 -6 -42 18 -10 18 24 19 31 8 31 -9 0 -20 -9 -26
-21z"/>
<path d="M2900 1803 c-8 -16 -16 -32 -18 -36 -3 -5 5 -4 16 2 23 12 36 41 24
53 -5 5 -15 -4 -22 -19z"/>
<path d="M4668 1800 c-13 -23 -14 -28 -2 -23 18 7 37 40 26 47 -4 2 -15 -8
-24 -24z"/>
<path d="M2960 1800 c13 -9 13 -11 0 -21 -12 -8 -12 -10 5 -7 30 5 32 38 3 38
-19 0 -20 -2 -8 -10z"/>
<path d="M3040 1770 c0 -5 -12 -10 -26 -10 -23 0 -24 -2 -10 -15 21 -21 31
-19 50 10 14 22 15 25 1 25 -8 0 -15 -4 -15 -10z"/>
<path d="M2930 1759 c0 -5 9 -9 20 -9 11 0 20 2 20 4 0 2 -9 6 -20 9 -11 3
-20 1 -20 -4z"/>
<path d="M2521 1737 c-10 -14 -7 -19 14 -27 34 -13 42 -13 48 3 3 6 6 7 6 2 1
-6 -19 -38 -43 -72 l-45 -61 27 -10 c62 -24 69 -23 91 5 71 93 120 167 115
172 -3 3 -50 6 -104 6 -83 0 -100 -3 -109 -18z"/>
<path d="M4454 1746 c-22 -17 -21 -18 31 -38 27 -10 45 -12 55 -6 17 11 70 -5
70 -22 0 -5 -20 -10 -44 -10 -52 0 -68 -21 -29 -39 33 -15 25 -35 -16 -39 -35
-4 -65 14 -57 34 6 15 -77 50 -93 39 -13 -7 -14 -44 -3 -62 26 -41 183 -85
246 -69 33 8 64 52 48 68 -9 9 -4 15 18 25 47 19 49 42 7 78 -20 17 -54 37
-75 43 -54 16 -134 15 -158 -2z"/>
<path d="M2875 1640 c-166 -54 -175 -68 -64 -105 77 -26 80 -28 63 -46 -16
-18 -15 -19 7 -27 60 -23 77 -23 93 -1 9 14 22 20 34 17 12 -3 26 2 36 13 14
17 14 19 -4 29 -19 10 -19 12 -3 38 10 15 20 29 24 32 7 6 29 46 29 53 0 9
-63 27 -94 26 -17 0 -71 -13 -121 -29z m68 -54 c-21 -29 -25 -30 -73 -11 -32
12 -33 14 -10 15 14 1 41 7 60 14 43 16 47 14 23 -18z m52 -6 c3 -5 1 -10 -4
-10 -6 0 -11 5 -11 10 0 6 2 10 4 10 3 0 8 -4 11 -10z"/>
<path d="M861 1548 c-9 -25 -4 -48 10 -48 5 0 9 16 9 35 0 40 -7 45 -19 13z"/>
<path d="M934 1545 c-5 -11 -1 -22 9 -30 9 -7 14 -15 10 -19 -4 -4 0 -4 10 0
21 8 21 10 -3 41 -18 23 -20 23 -26 8z"/>
<path d="M3691 1538 c-9 -25 -4 -51 9 -43 11 7 18 65 8 65 -5 0 -12 -10 -17
-22z"/>
<path d="M3760 1518 c1 -15 24 -48 34 -48 13 0 5 28 -10 34 -8 3 -12 10 -9 16
3 5 1 10 -4 10 -6 0 -11 -6 -11 -12z"/>
<path d="M1121 1494 c-16 -36 -6 -42 18 -13 24 28 26 39 8 39 -8 0 -19 -12
-26 -26z"/>
<path d="M1186 1494 c-18 -17 -21 -44 -6 -44 6 0 10 6 10 14 0 8 7 22 16 30 8
9 11 16 5 16 -5 0 -17 -7 -25 -16z"/>
<path d="M1217 1478 c-10 -17 -12 -28 -5 -26 17 6 41 45 31 51 -5 3 -16 -8
-26 -25z"/>
<path d="M1260 1480 c-22 -22 -25 -36 -10 -45 6 -3 10 0 10 8 0 8 7 20 15 27
12 10 15 10 15 -2 0 -8 -5 -19 -12 -26 -8 -8 -8 -12 -1 -12 20 0 36 29 24 43
-6 8 -8 17 -4 20 3 4 1 7 -5 7 -7 0 -21 -9 -32 -20z"/>
<path d="M1342 1484 c-14 -9 -22 -25 -21 -42 l1 -27 11 26 c7 14 18 33 26 43
17 20 12 20 -17 0z"/>
<path d="M1367 1461 c-20 -40 -17 -49 7 -22 10 11 16 28 14 38 -3 14 -7 10
-21 -16z"/>
<path d="M1438 1460 c-7 -11 -22 -20 -32 -20 -20 0 -20 0 -1 -14 11 -8 23 -12
27 -10 4 3 17 0 28 -6 13 -7 20 -7 20 0 0 5 -7 10 -15 10 -18 0 -19 14 -5 41
15 26 -6 26 -22 -1z"/>
<path d="M1510 1460 c19 -13 30 -13 30 0 0 6 -10 10 -22 10 -19 0 -20 -2 -8
-10z"/>
<path d="M3486 1444 c-119 -23 -154 -37 -156 -65 0 -7 102 -49 121 -49 26 0
30 -12 12 -32 -21 -23 -9 -36 43 -48 30 -7 42 -5 56 6 9 9 25 13 36 10 12 -4
25 1 38 15 18 20 18 22 2 32 -14 10 -11 17 28 63 l45 53 -47 20 c-25 12 -47
21 -48 20 0 0 -59 -12 -130 -25z m64 -54 c-25 -35 -30 -36 -73 -13 l-32 17 50
12 c76 18 79 18 55 -16z"/>
<path d="M2073 1453 c-15 -5 -18 -63 -4 -63 9 0 27 58 19 64 -1 2 -9 1 -15 -1z"/>
<path d="M3944 1435 c-12 -13 -19 -27 -16 -30 6 -6 52 34 52 47 0 15 -15 8
-36 -17z"/>
<path d="M754 1393 l-58 -57 30 -8 c16 -5 47 -9 69 -9 73 0 94 -18 59 -53 -21
-22 -63 -20 -88 3 -12 10 -42 21 -68 24 -44 4 -48 3 -48 -17 1 -45 89 -80 190
-74 55 3 74 9 104 31 35 27 45 58 28 83 -11 17 -70 34 -116 34 -37 0 -39 1
-24 17 15 14 25 15 93 3 71 -12 77 -12 90 6 25 33 18 44 -27 44 -38 0 -66 5
-155 25 -17 4 -36 -8 -79 -52z"/>
<path d="M1490 1431 c13 -11 28 -17 33 -14 13 8 -14 33 -37 33 -20 0 -20 -1 4
-19z"/>
<path d="M2140 1430 c-12 -8 -12 -11 3 -28 9 -10 14 -22 10 -25 -3 -4 -1 -7 5
-7 20 0 24 21 8 39 -9 10 -13 21 -9 24 9 10 1 8 -17 -3z"/>
<path d="M3995 1414 c-9 -9 -14 -18 -11 -21 2 -3 14 5 25 16 12 12 17 21 12
21 -5 0 -17 -7 -26 -16z"/>
<path d="M4031 1399 c-23 -30 -23 -31 -1 -19 11 6 24 18 27 26 10 28 -3 24
-26 -7z"/>
<path d="M4069 1391 c-15 -13 -20 -23 -14 -28 6 -6 21 2 37 19 31 32 13 39
-23 9z"/>
<path d="M1083 1339 c-29 -31 -53 -59 -53 -62 0 -8 91 -28 101 -22 15 10 69
-5 69 -20 0 -36 -81 -51 -104 -20 -6 9 -35 18 -63 22 -48 5 -53 4 -53 -14 0
-34 25 -54 85 -69 73 -17 121 -18 166 -3 125 42 93 149 -44 149 -38 0 -40 1
-25 17 15 15 23 15 93 2 75 -15 75 -15 90 8 8 12 15 24 15 26 0 2 -19 7 -42
10 -24 4 -74 13 -113 20 l-70 13 -52 -57z"/>
<path d="M2288 1365 c-20 -27 -22 -35 -9 -35 5 0 19 14 31 30 15 21 17 30 8
30 -7 0 -21 -11 -30 -25z"/>
<path d="M3775 1383 c-34 -9 -57 -35 -50 -60 5 -20 2 -23 -25 -23 -34 0 -70
-30 -70 -58 0 -32 53 -71 126 -92 84 -24 116 -25 160 -4 36 17 45 49 22 72 -7
7 -10 12 -7 13 81 14 101 34 75 74 -25 38 -180 90 -231 78z m125 -68 c22 -26
4 -48 -33 -41 -37 7 -62 29 -53 45 10 16 72 13 86 -4z m-60 -80 c16 -20 -3
-45 -35 -45 -29 0 -71 33 -61 48 10 17 81 15 96 -3z"/>
<path d="M4100 1383 c0 -6 -3 -20 -6 -30 -7 -17 -6 -17 12 -1 14 14 16 21 6
30 -8 8 -12 9 -12 1z"/>
<path d="M4175 1380 c4 -7 3 -15 -3 -19 -7 -4 -8 -12 -2 -21 11 -18 19 -11 22
20 2 12 -3 25 -11 28 -9 3 -11 0 -6 -8z"/>
<path d="M1851 1358 c-43 -12 -84 -39 -74 -48 4 -4 23 -12 42 -19 29 -9 37 -8
53 6 37 34 115 13 92 -25 -8 -13 -31 -18 -92 -23 -97 -7 -158 -23 -192 -50
-21 -16 -23 -20 -10 -29 8 -5 26 -10 41 -10 14 0 72 -16 129 -35 57 -19 107
-35 110 -35 3 0 14 13 23 30 l18 29 -28 6 c-73 16 -113 28 -113 36 0 5 19 9
43 10 82 1 138 15 165 43 25 25 26 28 12 52 -26 46 -151 81 -219 62z"/>
<path d="M2346 1351 c-10 -11 -16 -24 -15 -29 2 -5 14 4 27 20 26 31 15 39
-12 9z"/>
<path d="M2390 1360 c0 -7 -7 -22 -17 -32 -9 -10 -12 -18 -6 -18 5 0 18 9 28
20 14 16 16 23 7 32 -9 9 -12 9 -12 -2z"/>
<path d="M4243 1328 l-2 -31 20 22 c20 21 18 41 -4 41 -7 0 -13 -14 -14 -32z"/>
<path d="M2445 1336 c11 -8 25 -11 33 -8 11 4 11 6 0 13 -7 5 -22 9 -32 9 -19
0 -19 0 -1 -14z"/>
<path d="M2485 1310 c-11 -12 -15 -26 -10 -37 6 -16 8 -15 16 6 6 14 15 31 21
38 17 21 -7 15 -27 -7z"/>
<path d="M2522 1295 c-24 -38 -16 -47 12 -16 10 11 16 26 14 35 -2 11 -10 5
-26 -19z"/>
<path d="M4280 1311 c-12 -24 -13 -31 -2 -31 5 0 14 11 20 25 14 29 -2 34 -18
6z"/>
<path d="M4327 1301 c-10 -17 -14 -31 -9 -31 15 0 34 28 30 45 -2 12 -8 8 -21
-14z"/>
<path d="M2429 1303 c-13 -16 -12 -17 4 -4 9 7 17 15 17 17 0 8 -8 3 -21 -13z"/>
<path d="M2583 1303 c26 -7 20 -23 -15 -37 -30 -13 -30 -14 -9 -21 12 -4 25
-4 28 -1 4 3 0 6 -8 6 -8 1 -2 8 14 16 15 8 27 21 27 29 0 10 -9 15 -27 14
-17 -1 -21 -3 -10 -6z"/>
<path d="M2678 1266 c-8 -8 -24 -16 -35 -18 -19 -3 -19 -4 -3 -21 17 -17 19
-17 40 13 24 33 22 51 -2 26z"/>
<path d="M2135 1227 c-21 -31 -19 -35 20 -43 19 -3 35 -8 35 -11 0 -3 -21 -32
-46 -65 -25 -33 -44 -61 -42 -63 2 -1 24 -9 50 -18 l48 -16 22 32 c12 18 25
34 28 37 3 3 17 21 30 40 13 19 27 37 30 40 10 8 50 68 50 74 0 13 -76 18
-106 7 -24 -9 -44 -9 -69 -2 -31 8 -37 7 -50 -12z"/>
<path d="M4090 1214 c-74 -18 -112 -32 -129 -48 l-23 -24 81 -33 c77 -31 80
-34 64 -51 -19 -21 -21 -20 40 -46 l47 -21 16 24 c13 19 22 23 41 19 17 -5 28
-1 38 12 19 25 19 34 0 34 -8 0 -15 4 -15 9 0 9 34 55 63 83 25 26 22 34 -26
52 -54 20 -69 20 -197 -10z m77 -60 c-24 -24 -29 -25 -62 -14 -43 14 -42 17
11 29 72 17 80 15 51 -15z"/>
<path d="M2455 1129 l-56 -52 42 -18 c22 -11 56 -19 73 -19 53 0 75 -39 36
-60 -22 -12 -85 2 -92 20 -2 4 -27 15 -55 23 l-53 16 0 -24 c0 -56 112 -110
216 -103 58 4 70 8 90 32 13 15 24 38 24 51 0 35 -52 73 -111 81 -45 6 -49 9
-36 22 13 13 21 12 63 -1 81 -25 112 -28 129 -11 23 23 19 29 -32 46 -40 14
-167 48 -178 48 -2 0 -29 -23 -60 -51z"/>
<path d="M248 1163 c6 -2 18 -2 25 0 6 3 1 5 -13 5 -14 0 -19 -2 -12 -5z"/>
<path d="M395 1145 c33 -8 69 -14 80 -14 33 1 -26 16 -87 23 l-53 5 60 -14z"/>
<path d="M518 1123 c7 -3 16 -2 19 1 4 3 -2 6 -13 5 -11 0 -14 -3 -6 -6z"/>
<path d="M1384 1014 c39 -13 79 -24 90 -23 26 1 -111 48 -139 48 -11 0 11 -11
49 -25z"/>
<path d="M3220 1028 c0 -7 -3 -24 -7 -37 -4 -17 -2 -22 8 -19 19 6 31 68 13
68 -8 0 -14 -6 -14 -12z"/>
<path d="M3290 1002 c0 -15 25 -62 33 -62 12 0 7 34 -7 53 -14 18 -26 22 -26
9z"/>
<path d="M1599 954 c57 -19 106 -33 108 -31 6 6 -171 67 -192 67 -11 -1 27
-17 84 -36z"/>
<path d="M3255 960 c3 -5 8 -10 11 -10 2 0 4 5 4 10 0 6 -5 10 -11 10 -5 0 -7
-4 -4 -10z"/>
<path d="M2976 932 c-104 -22 -132 -31 -143 -49 -14 -21 -12 -23 26 -42 22
-12 49 -21 59 -21 10 0 27 -6 37 -14 19 -14 19 -15 2 -33 -9 -11 -17 -22 -17
-25 0 -3 23 -13 50 -22 46 -15 52 -15 67 -1 10 11 25 14 43 10 22 -5 30 -1 44
20 15 22 15 26 1 31 -21 8 -19 19 8 47 12 12 34 37 48 54 l27 30 -44 22 c-54
25 -48 26 -208 -7z m83 -53 c-29 -41 -40 -44 -85 -21 l-38 20 64 15 c36 8 69
16 73 16 5 1 -2 -13 -14 -30z"/>
<path d="M3455 931 c-3 -11 -13 -22 -21 -25 -8 -3 -12 -10 -9 -16 4 -6 18 1
35 17 16 15 27 30 24 35 -9 14 -22 9 -29 -11z"/>
<path d="M1728 913 c7 -3 16 -2 19 1 4 3 -2 6 -13 5 -11 0 -14 -3 -6 -6z"/>
<path d="M3508 909 c-10 -5 -18 -20 -18 -32 0 -21 0 -21 17 3 9 14 22 28 27
32 17 12 -6 9 -26 -3z"/>
<path d="M1781 905 c7 -7 251 -85 263 -84 12 1 -243 89 -258 89 -5 0 -7 -2 -5
-5z"/>
<path d="M3541 886 c-14 -14 -22 -28 -19 -31 9 -9 51 31 47 44 -3 8 -13 3 -28
-13z"/>
<path d="M3582 874 c-12 -8 -22 -22 -22 -30 0 -20 13 -17 28 6 7 12 23 25 35
30 21 8 21 9 2 9 -11 1 -31 -6 -43 -15z"/>
<path d="M3280 853 c-30 -15 -35 -23 -34 -51 2 -29 -1 -32 -26 -32 -37 0 -80
-35 -80 -66 0 -33 26 -56 102 -92 83 -39 135 -48 182 -28 41 17 67 59 48 78
-17 17 -15 28 7 28 26 0 71 38 71 60 0 30 -32 57 -97 84 -87 36 -131 41 -173
19z m149 -68 c33 -33 -22 -60 -70 -35 -21 12 -26 46 -6 54 18 7 60 -3 76 -19z
m-75 -84 c27 -30 11 -53 -37 -49 -43 3 -64 24 -54 52 9 23 69 21 91 -3z"/>
<path d="M3687 850 c3 -11 1 -20 -4 -20 -5 0 -10 -7 -10 -15 0 -20 9 -19 30 5
21 25 21 27 -2 39 -16 9 -18 8 -14 -9z"/>
<path d="M3604 842 c-10 -15 -7 -20 12 -29 13 -6 24 -7 24 -2 0 5 -4 9 -9 9
-5 0 -7 9 -4 20 7 25 -8 26 -23 2z"/>
<path d="M3765 820 c3 -5 1 -10 -4 -10 -6 0 -11 -12 -11 -26 0 -22 2 -25 15
-14 8 7 13 16 10 20 -3 5 -1 11 5 15 12 7 4 25 -11 25 -6 0 -7 -4 -4 -10z"/>
<path d="M3794 775 c-9 -14 -14 -28 -10 -32 3 -3 7 -4 9 -2 1 2 13 16 26 32
20 22 21 27 8 27 -9 0 -24 -11 -33 -25z"/>
<path d="M3700 780 c0 -5 5 -10 11 -10 5 0 7 5 4 10 -3 6 -8 10 -11 10 -2 0
-4 -4 -4 -10z"/>
<path d="M3840 760 c-22 -31 -13 -41 14 -14 15 14 22 44 12 44 -3 0 -14 -13
-26 -30z"/>
<path d="M3599 689 c-35 -28 -65 -52 -67 -53 -5 -6 86 -48 109 -50 29 -3 69
-23 69 -35 0 -4 -9 -16 -19 -25 -23 -21 -74 -14 -93 13 -13 18 -87 51 -113 51
-24 0 -17 -33 13 -68 18 -23 49 -40 97 -57 86 -30 126 -31 181 -4 33 15 44 27
50 52 5 26 2 35 -24 58 -17 15 -54 36 -81 46 -28 10 -51 21 -51 25 0 17 62 6
124 -21 l65 -30 19 27 20 26 -92 41 c-139 63 -134 63 -207 4z"/>
<path d="M2550 706 c0 -5 99 -52 129 -61 13 -4 62 -25 109 -46 46 -22 87 -39
90 -39 13 1 -134 74 -193 95 -33 12 -77 30 -97 39 -21 9 -38 14 -38 12z"/>
<path d="M2969 524 c40 -19 75 -33 77 -31 5 5 -129 67 -142 66 -5 0 24 -16 65
-35z"/>
<path d="M3570 275 c14 -8 30 -14 35 -14 6 0 -1 6 -15 14 -14 8 -29 14 -35 14
-5 0 1 -6 15 -14z"/>
<path d="M3650 240 c19 -11 42 -19 50 -19 8 0 -5 8 -29 19 -55 25 -67 25 -21
0z"/>
<path d="M3799 179 c46 -22 93 -39 104 -37 12 2 -15 18 -69 41 -117 49 -142
46 -35 -4z"/>
</g>
</svg>
