<svg version="1.2" xmlns="http://www.w3.org/2000/svg" viewBox="0 0 1187 1280" width="200" height="200"><style></style><path fill-rule="evenodd" d="m441.4 0.5c1.1 0.3 8.2 2.1 15.7 4 19.7 5 18.7 4.4 18.1 10.3-0.4 4.7-0.3 5 3.4 7.9 9.1 7 37.2 24.7 63.3 39.6l13 7.6 15.8-9.1c21.9-12.6 45.6-26.7 59.6-35.5 9.5-6.1 11.7-7.9 11.7-9.8v-2.4h15.1c8.3-0.1 15.5-0.4 15.9-0.6 0.5-0.3 1.1-0.2 1.4 0.3 0.2 0.4 2.1 13.1 4 28.2 4 30.3 6.8 47.6 9.2 56 1 3.5 5.4 11.4 11.9 21.5 32.2 50.1 50.2 90.6 56.5 127 5 29.2 3.1 54.2-6.5 86.8-6.5 21.8-24.3 65.9-28.1 69.5-1.3 1.3-2.4 2.9-2.4 3.6 0 1.4 2.5 4.9 7.7 10.9 4.1 4.6 4.2 8.1 0.5 12.7-3.8 4.6-5.2 7.4-5.2 10.2 0 3.5 5.5 14.2 17.7 34.3 8.9 14.8 14.5 22.5 31.3 43 68.5 83.6 167.3 195.9 181.7 206.5 3.4 2.5 12.1 8.8 19.4 14 46.4 33.2 88.9 70.2 96.2 83.8l2.8 5.2-2.2 3.8c-1.2 2-4.1 6.4-6.5 9.7l-4.2 6.1 6 7.9c9 12 36.9 51.3 60.3 85 32.8 47.4 48.4 69.5 53.8 76.3 8.8 11.4 10.6 18.1 6.4 24.3-3.3 5-9.1 7.7-19.4 9.3-5 0.7-9.5 1.6-10.2 2-1.7 1.1-3 4.8-4.6 13.2-1.4 7.6-4 12.4-9.8 18.7l-3.5 3.8 5.5 8c6.3 9.2 6.6 8.1-4.2 13.4-30 14.6-76.2 11.3-118.1-8.4-22.5-10.6-34.6-21.3-51.4-45.1-15.9-22.5-24-29.1-37.2-29.8-5.4-0.3-7.5 0-11.2 1.9-17 8.5-35 38-41.1 67.4-1.3 6.6-1.5 11.2-1 26 0.6 15.2 0.5 19-1 24.4-3 11.6-8.8 20.3-19.6 29.7-7 6-45.5 31.8-53 35.5-14.6 7.3-32.1 7.7-62 1.5-19.5-4-29-4.5-38.2-2.1-9.5 2.5-13.5 5.2-26.7 17.9-14.9 14.4-22.8 20.5-32.4 25-22.3 10.6-42 6.5-74.9-15.7-17.2-11.7-49.8-36.1-59.4-44.5-4.4-3.9-15.6-15.3-24.8-25.4-18.8-20.4-33.6-35.8-34.6-35.8-0.7 0 0.6 7.9 2.2 13 0.7 1.9 4.3 10.4 8.1 18.9 13.5 30 16.4 42.4 15.5 66.5-1.2 33.8-12.6 49.4-37.6 51.2-18 1.4-34.9-6.9-53.9-26.5-22.9-23.6-37.3-45.5-65-98.6-26.2-50.4-44.3-81.6-46.7-80.6-0.6 0.2-2.9 7.8-5.3 17-11 42.8-23.1 75.4-35.7 96.1-6.7 11.1-16.9 21.6-24.6 25.3-11.3 5.6-27.6 7-42.6 3.7-24.7-5.4-56.5-22.3-86.8-46-5.7-4.5-10.9-8.8-11.4-9.4-1-1.2 0.1-35.3 1.4-45.2l0.6-4.1-4.3-1.2c-19.6-5.8-38.2-25.5-58.8-62.4l-7.1-12.8 1.6-10.7c3.4-23.1 9-45.8 21.4-86l9.1-29.2-1.1-10.3c-0.6-5.6-0.8-14.9-0.5-20.6 0.7-10.3 0.7-10.6 6.2-20.3 39.5-70.4 175.6-225.6 331.9-378.6 18.7-18.3 34.1-34.2 34.3-35.2 0.2-1.1-0.8-3.5-2.3-5.4-2.8-3.7-4.1-9.3-2.6-11.5 0.5-0.7 3.1-1.9 5.7-2.6 4.5-1.1 4.9-1.5 4.8-4.1-0.1-1.6-0.5-8.8-1-15.9l-0.7-13-4.7-8.3c-5.9-10.2-12.2-29-15-44.2-6.9-38.8-4-88.7 8.6-148 7.5-35.3 22.8-84 26.4-84 2 0 6.8-9.1 8.9-16.8 2.3-8.8 3.7-23.9 4.6-49.7 0.6-17.3 1.9-33.3 3.2-38.3 0.4-1.9 1-2.2 2.7-1.7zm184.9 45.6c-0.4 0-9.9 5.5-20.9 12.2-11.1 6.7-23.4 14.1-27.4 16.3l-7.3 4.1 10.3 5.8c5.6 3.2 11 5.9 11.9 6.2 1.6 0.4 9.1-9.3 30.5-39.5 2.1-2.8 3.4-5.2 2.9-5.1zm-148.2 14.1c-4.4-6.8-8.1-12-8.1-11.5 0 0.4-0.9 8-2 16.7-1.1 8.8-2 19.8-2 24.6v8.6l5.3 5.1 5.2 5.2 8-3.3c13.4-5.6 18.5-8.1 18.5-8.9 0-0.5-3.8-6.1-8.4-12.5-4.6-6.4-12-17.3-16.5-24zm31.2 15l10 13.7 6.1-3.1c3.3-1.7 8-4.2 10.4-5.5l4.2-2.5-21.7-13c-12-7.2-23-13.9-24.5-14.9-5.7-4.1-5.3-3.4 15.5 25.3zm135.6-24.2c-0.3 0-3.2 3.7-6.4 8.2-3.2 4.6-10.9 15-17 23.3-6.1 8.2-11.4 15.5-11.8 16.2-0.5 0.8 4.7 4 15.8 9.8 14.4 7.6 16.8 8.5 17.8 7.2 0.7-0.9 3.2-4.1 5.6-7.1 5.1-6.6 5.1-4-0.1-36.8-1.8-11.5-3.6-20.8-3.9-20.8zm-89.1 36.1c-0.2 0-6.3 3.3-13.6 7.3l-13.3 7.3 14.2 18.2c7.9 9.9 14.6 18.1 15 18.1 0.6 0 24.3-30.4 26.2-33.6 0.4-0.8-4.5-4.1-13.7-9.3-8-4.5-14.6-8.1-14.8-8zm-42.7 23c-0.6 0.1-22.2 10-23 10.6-0.4 0.3 10.6 12.2 31.6 34.2l12.8 13.4 6.2-7.6 6.2-7.5-13.5-17.2c-7.4-9.5-14.9-19.2-16.6-21.6-1.7-2.4-3.4-4.4-3.7-4.3zm103.5 9.6l-16.5-8.3-15.2 19.5c-8.4 10.7-15.2 20.1-15.3 20.8-0.1 0.7 4.8 7.1 10.8 14.2 8.6 10.2 11.3 12.8 12.3 11.9 1.4-1.1 38.4-46.5 39.6-48.5 0.5-0.8-4.5-3.9-15.7-9.6zm-55.2 50.9l-4-4.8-5.7 6.7c-3.1 3.6-5.7 7-5.7 7.5 0 1 20 19.8 22.4 21.2 1.2 0.7 3-0.4 7.1-4.3l5.5-5.2-7.8-8.1c-4.2-4.5-9.6-10.3-11.8-13z"/></svg>