<svg version="1.2" xmlns="http://www.w3.org/2000/svg" viewBox="0 0 1280 802" width="80" height="80"><style></style><path fill-rule="evenodd" d="m639 0.1c652.5-0.1 597.3-0.6 611.6 6.4 5.2 2.5 8.9 5.4 13.7 10.5 6.8 7.2 9.4 11.2 13.1 21l2.1 5.5 0.3 354.3c0.2 391.4 0.7 360.8-6.1 373.6-3.9 7.3-12.1 16.3-18.7 20.6-2.7 1.7-8.6 4.7-13.1 6.6l-8.3 3.4h-1185.2l-7-2.4c-10.8-3.6-16.8-7.1-23.9-13.7-7.7-7.2-12.5-14.8-15.4-24.3l-2.1-6.8v-353.7c0-312 0.2-354.4 1.5-359.5 5.1-19.5 21.9-36 40.8-40.1 5.2-1.1 104.4-1.4 596.7-1.4zm182 80.9h-18l0.2 39.7 0.3 39.8 8.8 0.3 8.7 0.3 0.1-9.8c0.1-5.4 0.4-11.2 0.8-12.8l0.6-3 4 5.1c2.2 2.9 6.1 8.6 8.7 12.8l4.7 7.6h10.7c5.8 0 10.4-0.3 10.2-0.8-0.1-0.4-4.9-7.6-10.5-15.9-5.7-8.4-10.3-15.7-10.3-16.2 0-0.5 3.4-5 7.5-10.1 4.1-5 8.4-10.5 9.6-12.1l2-2.9h-20.8l-7.9 10.5c-4.4 5.7-8.2 10.5-8.6 10.5-0.5 0-0.8-9.7-0.8-21.5zm-195 3h-16.8l-0.7 19.2c-0.3 10.6-0.5 27.8-0.3 38.3l0.3 19 15.5 0.3c27.6 0.5 35.4-1.6 42.5-11.7 2.7-3.8 3-5.1 3-11.6 0-8.5-1.4-11.1-8.4-15.8l-4.2-2.9 2.6-3.4c5.9-7.7 7-15.2 3.2-21.8-2.5-4.5-7-7.1-14.6-8.6-3-0.5-12.9-1-22.1-1zm291.5 0h-23.5v77h17l0.2-26.3 0.3-26.2 4.2 7c2.3 3.8 8.9 15.5 14.6 26l10.4 19 9.1 0.3 9.2 0.3 0.2-18.8c0.2-10.3 0.2-27.7 0-38.6l-0.3-19.7h-16.9v21.2c0 25.3 1.2 25.5-14.1-2.4zm-231.7 18.3c-3.7 0.7-6.9 1.5-7.1 1.7-0.3 0.3-0.7 3.6-1 7.3-0.4 5.9-0.3 6.7 1.2 6.3 11.4-3.3 14-3.8 19.2-3.4 4.8 0.3 6.5 1 8.9 3.3 4 3.9 3.9 5.5-0.6 5.5-6 0-17.5 2.1-21.8 4-10.6 4.6-14.6 15.7-9.3 26 5.3 10.5 17.7 12.8 29 5.4 2.2-1.4 4-2.4 4.2-2.2 0.1 0.2 0.8 1.3 1.4 2.5 1.1 2.1 1.9 2.3 9.1 2.3h8v-22.5c0-17-0.3-23.4-1.4-25.9-1.6-3.8-6.4-7.7-11.6-9.5-5.2-1.8-20.5-2.2-28.2-0.8zm75 3.5c-4.5 2.8-4.8 2.7-4.8-0.3 0-2.5-0.1-2.5-9-2.5h-9v58h18v-42l2.7-1.1c1.5-0.5 5.1-0.9 8.2-0.7 5.1 0.3 5.5 0.5 6.2 3.2 0.5 1.6 1.1 11.4 1.5 21.8l0.7 18.8h16.6l0.7-5.7c0.4-3.1 0.4-13.5 0.2-23-0.5-15.8-0.8-17.8-3-22-1.7-3.3-3.6-5.3-6.7-7-6.7-3.5-13.8-2.7-22.3 2.5zm231.9-4.7c-3.2 0.2-12.6 1.5-16.9 2.3l-3.8 0.7v6.4c0 7.3-0.2 7.2 8 5 11.1-3 19.8-1.5 23.4 4 2 3.1 2.3 3-10.4 4.5-14.8 1.7-21.5 5.5-24.6 13.6-3.1 8.1 1 19.5 8.2 22.9 6.9 3.3 10.6 3.1 19-0.9 4.2-2 7.8-3.6 8-3.6 0.2 0 0.4 1.1 0.4 2.5 0 2.5 0.1 2.5 8.5 2.5h8.5v-23.4c0-22.6-0.1-23.4-2.3-26.7-3.5-5.2-7.8-7.5-16.2-8.8-4.2-0.6-8.6-1-9.8-1zm62.1 4.7c-4.5 2.8-4.8 2.7-4.8-0.3 0-2.5-0.1-2.5-9-2.5h-9v26.7c0 14.8 0.3 27.8 0.6 29 0.6 2.2 1.2 2.3 9 2.3h8.4v-42l2.4-1c5.7-2.1 9.1-2.2 11.6-0.2 2.5 2 2.5 2.2 2.9 22.6l0.3 20.6h6.7c12 0 11 1.9 11.3-21.8l0.3-20.6 4.5-1.3c2.5-0.8 5.5-1.1 6.7-0.8 4.2 1 4.7 3.8 4.8 24.2 0 10.6 0.4 19.5 0.7 19.9 0.4 0.3 4.6 0.3 9.4-0.1l8.7-0.8-0.6-22.4c-0.7-25.3-1.7-29.5-7.9-33.3-7-4.3-13.9-3.5-22.8 2.6l-5.1 3.5-3.6-3.2c-2-1.7-5.1-3.8-6.9-4.5-5.5-2.3-11.1-1.2-18.6 3.4zm86.6-1c-5 2.6-10 8.1-12.8 14.1-1.5 3.5-2 6.7-2.1 13.1 0 7.3 0.4 9.3 2.8 14.2 5.6 11.5 16.4 16.5 33.6 15.5 5.3-0.3 12-1.2 14.9-2.1l5.2-1.7v-7.5c0-5.7-0.3-7.5-1.2-7.1-11.8 5.2-14.8 6.1-20.3 6.1-8.1 0-12.8-2.3-15.5-7.8-1.1-2.3-2-4.8-2-5.4 0-0.9 5.3-1.2 20.1-1.2h20.2l-0.7-7.2c-1.2-13.4-4.7-19.8-12.8-23.6-8-3.8-21.3-3.5-29.4 0.6zm-833.8 110.2h-76c-71.5 0-76.3 0.2-80.1 1.9-5.6 2.5-10.1 6.6-13.3 12l-2.7 4.6-0.3 37.9c-0.2 20.9 0.1 38.2 0.5 38.5 0.4 0.3 13.9 0.5 29.8 0.3l29-0.3 3.9-6c2.1-3.3 4.4-8.1 5-10.7l1.1-4.7 0.3 5.4c0.3 5.1 0 6-3.8 11.4-4.1 5.7-4.2 6.1-3.5 11.5 1.2 9.8 5.3 21.3 8.9 24.6 12.8 12.1 38.2 11.8 50.5-0.6 10-10 11.9-28.9 4-39.8-2.3-3.1-2.9-5.1-2.9-8.9 0-2.7 0.6-5.3 1.3-5.9 0.7-0.6 2.6-3.9 4.2-7.3l3-6.2 13.8 0.6c7.6 0.4 21.4 0.4 30.8 0l17.1-0.6-0.4-18.6c-0.3-16.2-0.6-19.2-2.4-23.1-3-6.5-6.7-10.5-12.6-13.4zm-16.6 60.3l-23.6-0.6-3.2 7.1c-4.9 11.1-4.7 13.6 2.5 23.5l3.5 4.7 28.6-0.2 28.7-0.3 0.3-16.8 0.2-16.7h-6.7c-3.8 0-17.4-0.3-30.3-0.7zm-97.5 38.2l-29.2-0.3-29.3-0.2v34h26.3c18.1 0 29.3 0.5 36.1 1.5 5.5 0.8 10.1 1.5 10.2 1.5 0.2 0-1.1-1.5-2.7-3.3-5.3-5.7-9.9-16.6-10.7-25.4zm93.3 0.8l-15.7-0.6-0.6 3.9c-2.7 17.5-3.3 19-10.7 27.6l-5 5.8 3.4-0.6c1.8-0.4 6.2-1.3 9.8-2.1 4.3-1 15.5-1.6 33.3-2l26.7-0.5v-30.8h-12.7c-7.1 0-19.9-0.3-28.5-0.7zm-151.8 38.4c0 0.4 1.3 3.1 2.9 5.8 3.8 6.7 9.9 12.1 15.3 13.6 4.9 1.3 51.4 2.3 65.1 1.3l8.7-0.6v-17.8l-3.2-0.1c-1.8-0.1-9.1-0.5-16.3-1.1-16.8-1.3-72.5-2.1-72.5-1.1zm192.9-0.7l-24.7 0.1c-15.5 0.1-27.9 0.6-33.2 1.5-4.7 0.7-14.1 1.3-20.9 1.4h-12.4l0.7 8.7c0.3 4.8 0.9 8.9 1.2 9.2 0.3 0.3 15.8 0.6 34.4 0.5h33.9l5.8-3c5.9-3 12.3-10 14.2-15.7zm174.2 86.4c-3.5-0.7-3.7-0.1-2.1 5.6 1.7 6.1 2.2 6.4 6.6 3.8 3.5-2 5-2.3 13.8-2.1 5.4 0.1 10 0.4 10.3 0.6 0.2 0.2 0.6 3.3 0.9 6.8l0.6 6.4-16.4 14.8 0.4 11.2c0.2 9.6 0.6 11.6 2.3 13.5l2 2.2 0.6-2.4c0.4-1.2 0.7-6.4 0.8-11.4l0.1-9 6.3-5.1c8.6-6.9 9.7-9.5 9.7-23.2v-11.1h-16.4c-9 0-17.8-0.3-19.5-0.6zm162.7 0.3l-3.8 0.4v11.9c0 6.5 0.3 12.5 0.6 13.4 0.5 1.4 2.8 1.6 15.4 1.6h14.8l0.7 8.7c0.5 6.7 0.3 9.6-0.8 12.3-0.8 1.9-1.8 5.6-2.2 8.2l-0.7 4.8h5c4.9 0 4.9 0 5.6-3.8 0.3-2 0.6-15.7 0.6-30.3v-26.6l-3.7-0.7c-4-0.6-25.1-0.5-31.5 0.1zm324.5 0.2c-1.9-1.9-2.6 6.5-1.8 23.8l0.7 16.4 5.4-0.7c3-0.3 7.8-0.3 10.8 0 6.5 0.9 7.6 2.6 7.6 12.5 0 4.4 0.5 7.4 1.5 8.7 1.3 1.7 1.4 1 1.5-7.8 0-7.3 0.4-10.4 1.7-12.7 1.7-2.9 1.7-3.2 0-6.4-1.6-3-1.7-4.2-0.8-9.2 1.5-7.8 1.4-15-0.1-16.2-0.7-0.6-2.1-1.3-3.2-1.7-1.7-0.6-1.8 0.1-1.5 12.5 0.4 12.8 0.3 13.2-1.9 14.7-1.2 0.8-5.4 1.7-9.2 2l-7 0.5 0.7-17.7c0.6-17 0.6-17.6-1.3-17.6-1.1 0-2.5-0.5-3.1-1.1zm-698.7 0.1c-0.3 0-0.6 6.2-0.6 13.9 0 7.6-0.3 16.6-0.6 19.9l-0.7 6.1 23.8 0.6 0.5 9.3c0.4 7.8 0.8 9.6 2.4 10.8 1.1 0.8 2.3 1.4 2.8 1.4 0.4 0 0.8-4.4 0.8-9.9 0-8.5 0.3-10.2 2.1-12.5l2.1-2.7-2.5-1.9c-2.2-1.8-2.4-2.7-3-13.7-0.3-6.5-0.9-12.7-1.3-13.7-1.4-3.5-2.6 2.1-3.1 14.6l-0.6 11.8h-17.7v-16c0-14.7-0.1-16-1.9-17-1.1-0.5-2.2-1-2.5-1zm435.5 0.4l-3.1-0.7v25.8l-3.8 2-3.7 2-0.3 12.5c-0.3 13.2 0.6 17.5 3.9 18.5 3.7 1.2 28.3 0.9 30.5-0.3 1.3-0.7 2.4-2.5 2.8-4.9 0.9-5.5 0.7-23.6-0.3-25.1-0.4-0.7-2.1-1.6-3.7-2.1-3.7-0.9-4.2-2.9-4.3-16.4l-0.1-10.7h-7.4c-4 0-8.8-0.3-10.5-0.6zm60.4 0.4l-18-0.5 0.4 4.9c0.2 4.1 0.6 4.8 2 4.2 5-2.1 12.5-3.4 20.3-3.4h8.8v14.5l-14.8 14-0.2 10.5c-0.4 16.6-0.4 16.2 2.8 15.8l2.7-0.3 0.6-22.4 4.9-3.6c2.7-2 6.1-5 7.5-6.7 2.6-3.1 2.7-3.5 2.3-14.4-0.2-6.2-0.5-11.4-0.8-11.7-0.3-0.2-8.6-0.7-18.5-0.9zm40.2-0.4l-4.7-0.7 0.1 28.9c0.1 15.9 0.5 29.7 1.1 30.7 0.8 1.6 2.5 1.7 18.6 1.5l17.7-0.3v-11.8c0-7.1 0.4-11.7 1-11.8 0.6 0-0.3-0.5-2-1.1-1.6-0.5-9.2-1.2-16.7-1.5l-13.8-0.6v-12.1c0-8.7 0.4-12.8 1.5-14.6 2.4-4.2 2.8-5.1 2.3-5.5-0.3-0.3-2.6-0.8-5.1-1.1zm125-0.2l-13.5-0.5-0.7 3.3c-0.4 1.8-0.4 9.4 0 17l0.7 13.8 10.3 0.4c5.7 0.1 10.7 0.6 11.1 1 0.4 0.5 0.8 4.4 0.8 8.9 0.1 10.5-0.8 11.3-11.4 10.5-4.1-0.2-10.3-1.2-13.8-2.1-3.5-1-6.6-1.4-6.9-1.1-1.3 1.2 5.9 7.3 10 8.6 4.1 1.3 26.4 1.6 27.6 0.5 0.3-0.3 0.7-7.7 0.9-16.5l0.4-15.8-7.3-0.6c-4.1-0.3-9.2-0.7-11.4-0.9l-4-0.2-0.6-19.4 11.8-0.3c11.2-0.3 11.8-0.4 11.5-2.3-0.2-1.1-0.7-2.4-1.2-2.9-0.5-0.5-6.9-1.1-14.3-1.4zm97.1-0.2h-12.9l1.5 2.9c1.3 2.5 2.2 2.9 7.9 3.5 3.6 0.3 10.3 0.3 15.1 0l8.6-0.7v2.9c0 1.6-0.7 6.4-1.5 10.7-0.8 4.3-1.5 8.1-1.5 8.4 0 0.3-4.8 0.4-10.6 0.1-10.3-0.5-10.5-0.4-10 1.6 0.3 1.2 0.6 2.5 0.6 2.9 0 0.5 4.2 0.7 9.3 0.6l9.2-0.2 1.8 3.4c1.3 2.5 1.7 5.2 1.5 10.4l-0.3 7-4 0.7c-2.2 0.4-9.1 0.5-15.2 0.2-12.1-0.7-12-0.7-10.7 4.3 0.6 2.3 0.8 2.3 18 2.3h17.3l0.8-3.8c0.4-2 0.7-7.3 0.6-11.7 0-4.4-0.1-16.1-0.1-26.1l-0.1-18.1-6.2-0.7c-3.4-0.3-12-0.6-19.1-0.6zm41.2 0.3c0 0.3 0.5 1.7 1.1 3 1 2.1 2 2.5 8.1 3.1 3.8 0.3 10.5 0.3 14.7 0l7.8-0.7 0.7 8.7c0.5 5.9 0.4 9.2-0.4 10.1-2 2.4-9.3 3.4-20.3 2.8l-10.7-0.6v34.3h37.9l-1.4-3.2-1.3-3.3-14.4 0.1c-16.6 0-15.5 0.8-15.7-11.9l-0.1-7.7h15c13.4 0 15.1-0.2 15.8-1.8 0.9-2.4 0.9-30.9-0.1-31.8-0.9-0.9-36.7-1.9-36.7-1.1zm-944 0.7h-11.7l-11.8 0.1 2.7 2.3c2 1.8 4.5 2.6 9.4 3.1l6.7 0.8-0.7 22.9c-0.3 12.7-0.9 23.4-1.2 23.9-0.3 0.5-4.1 0.9-8.5 0.9h-8l2.1 3 2.2 3 17.1-0.2 17.2-0.3 0.6-24.2-2.6-1.1c-1.4-0.7-2.8-1.2-3-1.2-0.3 0-0.5 4-0.5 8.9 0 11.7-0.2 12.1-5.6 12.1h-4.4zm49 0c-9.9 0-18 0.4-18 0.8 0 0.5 0.8 1.6 1.8 2.5 1.6 1.4 4.3 1.7 16.5 1.7h14.7v10.5c0 12.4 1.6 11.4-18 11.8l-13.5 0.2-0.3 16.2-0.2 16.3h37v-5.9l-14.9-0.3c-8.2-0.2-15.2-0.5-15.4-0.8-0.3-0.3-0.6-5-0.8-10.5l-0.4-10h14.3c13.3 0 14.4-0.1 15.5-2 1.3-2.2 1.7-25.8 0.5-28.8-0.7-1.5-2.5-1.7-18.8-1.7zm36.6 0.9c-1.6 0.6-1.2 1 2.5 2.6 3.6 1.4 6.8 1.8 17.3 1.6l12.9-0.2-0.5 8.6c-0.4 5.4-1.2 9.4-2.2 11-1.6 2.4-2 2.5-12.6 2.5-6.1 0-11 0.4-11 0.9 0 0.5 1.2 1.7 2.8 2.7 2 1.4 5.2 1.9 12.5 2.2l9.8 0.4-0.3 10.2-0.3 10.1-16.3 0.5-16.4 0.5 2.6 2.7 2.5 2.8h16c11.7 0 16.2-0.3 16.8-1.3 0.4-0.6 0.8-13.9 0.9-29.4 0.1-27.7 0.1-28.2-2-28.7-3.1-0.8-32.8-0.6-35 0.3zm184.2-0.7l-13.6-0.3-0.7 7.3c-0.3 4-0.5 11.3-0.3 16.3l0.3 9 22.4 0.6 0.3 9.5c0.2 5.7-0.1 9.9-0.7 10.2-1.9 1.3-18 0.5-24.4-1.2-3.5-0.9-6.6-1.4-6.9-1.1-1.1 1.1 6.3 7.6 9.8 8.5 3.9 1.1 19.1 1.3 23.8 0.4 1.9-0.4 3.4-1.4 3.7-2.6 0.9-2.7 0.9-20.6 0.1-25.6l-0.8-4.2h-21.7l-0.6-3.3c-0.3-1.7-0.6-6.6-0.7-10.7l-0.3-7.5 12-0.2c11.9-0.1 12-0.1 12-2.5 0-2.3-0.1-2.3-13.7-2.6zm35.9-0.2h-4.4l-0.6 21.2c-0.4 11.7-0.4 25 0 29.5l0.6 8.2 4.1 0.6c2.3 0.3 10.4 0.5 18.1 0.3l14-0.3 0.6-25.2-4.7-0.7c-2.6-0.3-9.8-0.6-16-0.6h-11.4v-12.9c0-11.3 0.2-13.1 2-15.4 1.1-1.4 2-3 2-3.6 0-0.6-1.9-1.1-4.3-1.1zm131.3 0h-21v9.4c0 13.1-0.6 15.4-4.5 17.3-3 1.4-3.3 2.1-3.9 7.5-0.4 3.3-0.4 9.6 0 13.9 0.9 10.9 0.9 10.9 20 10.9 13.5 0 15.3-0.2 15.9-1.8 0.5-0.9 1-7.7 1.3-15.1 0.5-14.5 0.3-15.1-5-15.1h-2.8zm-427.2 86c-2.2 0.1-7.2 2.6-8.7 4.3-1.6 2-1.8 2 4.8 0.7 12.6-2.4 13.1 5.6 1.2 18.4-3.4 3.6-6.1 7.5-6.1 8.6 0 1.9 0.6 2 11.3 2 10.1-0.1 11-0.2 9.3-1.5-1.2-0.9-4.2-1.5-7.6-1.5-3.1 0-6-0.3-6.3-0.6-0.3-0.4 1.6-3.1 4.3-6.2 9.9-11.1 10.8-19.3 2.5-22.8-1.9-0.8-4-1.4-4.7-1.4zm20.6 1.4c-5.6 2.5-5.4 4 0.5 3.3 6.8-0.8 10.1 0.4 10.1 3.8 0 1.8-1.1 3.3-4 5.3-2.1 1.5-3.9 3-4 3.4 0 0.4 1.7 0.8 3.8 1l3.7 0.3v5.4c0 7-1.3 7.9-9.4 6.5-3.4-0.6-6.1-0.7-6.1-0.3 0 0.4 1.2 1.7 2.6 2.8 5.5 4.3 15.4 1.8 18-4.6 1.5-3.4 1.4-3.8-0.9-8.2l-2.4-4.6 1.9-3.7c2.4-4.6 1.7-7.3-2.5-9.9-3.7-2.2-7-2.4-11.3-0.5zm38.4 7.1l-0.3-9-6.8 6.4c-6.6 6.3-13.2 15.3-12 16.5 0.4 0.3 3.9 0.6 8 0.6h7.3v5.5c0 4.8 0.2 5.5 2 5.5 1.6 0 2-0.7 2-3.6 0-3.6 1.5-7.4 3.3-8.6 0.7-0.4 0.3-1.4-1.1-2.5-1.9-1.6-2.2-3-2.4-10.8zm-79.7 21l-0.3-14.1-0.3-14.2-4.7 2.4c-5.4 2.7-5.8 3.6-2.5 5.1 2 0.9 2.5 2.1 3 7 0.9 8.1-0.1 13-2.9 15.2-1.3 1.1-2.4 2.1-2.4 2.4 0 1 9.6 1.6 13 0.8l3.5-0.8zm453.9-8.9c-2.9 2.5-3.2 2.5-4.9 1-2.4-2.2-3.6-2-6 1-2.3 2.9-5 2.7-5.8-0.6-0.7-2.7-3.9-2.5-4.7 0.2-1 3.9-0.6 12.2 0.8 14.7 1.2 2.2 1.3 2.1 2-3l0.8-5.4 1.9 2.4 2 2.4 1.5-2.1c2.1-3 3.4-2.7 3.4 0.7 0 1.6 0.3 3.6 0.6 4.5 0.5 1.3 0.9 1.2 2.6-0.9l1.9-2.5 3.2 2.4c4.6 3.3 6.5 3.8 9.6 2.1 5.8-2.9 6.7-12.8 1.6-17.3-3.4-2.9-6.6-2.8-10.5 0.4zm17.3-2.6c-0.5 0-0.2 6.3 0.6 11l0.7 4.5 1.6-7.8 3.9 6.1c2.1 3.4 4.1 6.2 4.4 6.2 0.3 0 0.5-4.1 0.5-9 0-5.3-0.4-9-1-9-0.5 0-1 1.8-1 4 0 2.2-0.4 4-0.9 4-0.5 0-2.6-2.3-4.7-5-2.1-2.8-3.9-5-4.1-5zm18.5 0.8l-3.8 0.3 2.7 2.3c2.4 2.1 2.7 3 2.6 9 0 5 0.3 6.6 1.3 6.6 1 0 1.4-1.6 1.4-6.3 0-7.2 1.8-10.7 5.6-10.7 2.3 0 2.4 0.2 2.5 7.2 0 7.1 1.6 14.6 1.8 8.8 0.2-5.8 1.1-7 5.2-7 3.7 0 3.9 0.1 3.9 3.3 0 2.2 0.9 4.3 2.9 6.5 1.7 1.7 3.2 2.9 3.4 2.4 0.3-0.4 1.6-4.5 3.1-9.2 1.4-4.7 3-9.2 3.6-10 1.5-2.4 4 0.9 6.5 8.7l2.2 6.8 1.3-5.8c0.6-3.3 2.1-6.8 3.2-7.9 2-2 2.2-2 3.5-0.3 0.7 1.1 1.3 4.4 1.3 7.7v5.8l6.3-0.1 6.2-0.1-4.7-1.5c-2.7-0.8-5.3-2.3-5.8-3.4-1.2-2.2-1-2.3 5.5-3.7l4-0.9-3.7-0.8c-5.3-1-6.8-3.2-3.3-4.5 1.4-0.5 3.2-1 4-1 0.8 0 1.6-0.4 1.9-0.9 0.5-0.8-6.2-2.1-11.1-2.1-1.6 0-3.6 1.3-5.5 3.5l-3.1 3.4-3.9-3.4c-5-4.6-6.5-4.5-7.8 0.7-3 11.4-4.2 14.7-5.5 15.2-1.2 0.4-1.5-0.3-1.5-3.2 0-6.2-1.2-14.2-2.1-14.2-0.5 0-0.9 1.3-0.9 3 0 2.8-0.2 3-4 3-3.2 0-4-0.4-4-1.8 0-1-0.6-2.5-1.2-3.4-1.4-1.7-8-2.6-14-2zm74.4-0.8c-0.4 0-1.5 1.8-2.4 4l-1.7 4h3.5c3.8 0 3.9-0.3 2.3-4.9-0.6-1.7-1.4-3.1-1.7-3.1zm11.5 0.4c-1.1-0.4-1.6 0.8-2 4.8-1.2 9.2-0.9 13.8 0.8 13.8 1 0 1.5-1.1 1.5-3.5 0-1.9 0.3-3.5 0.6-3.5 0.3 0 2.6 1.6 5 3.6 4.4 3.6 5.7 3.5 3-0.2-1.1-1.4-1.3-3.6-0.9-8.2l0.6-6.2h-3.6c-1.9 0-4.2-0.2-5-0.6zm-13.9 10.4c-0.3-2.1-0.5-2-2.6 1.2-2.1 3.3-2.8 6-1.7 6 0.3 0 1.9-1 3.5-2.2l3-2.1 3.7 2.6c2 1.5 3.9 2.4 4.2 2.2 0.7-0.8-3.1-8.5-4.3-8.5-0.6 0-2.1 0.7-3.3 1.5-2 1.4-2.2 1.4-2.5-0.7zm-131.8 20.2h-8.4c-7.9 0-8.4 0.1-7.9 2 0.5 1.7 1.4 2 6.4 2h5.9v17.2c0 9.5-0.3 18.3-0.6 19.5-0.5 2-1.4 2.2-7.3 2.5l-6.6 0.3 3.4 1.9c2.7 1.4 5.4 1.8 12.4 1.7 4.9 0 10.4-0.3 12.3-0.7l3.4-0.6v-9.4c0-9.3 0-9.4-2.5-9.4-2.3 0-2.4 0.2-2.4 6.6 0.1 7.3-1.6 10.4-5.8 10.4h-2.3zm96.2 0c-1.8 0-6.3 6.2-14.5 20-9.2 15.6-12.6 22.4-12.7 25.3 0 1.5 0.4 1.3 2.3-1 7.1-8.5 17.6-26.1 23.1-38.6 1.4-3.1 2.2-5.7 1.8-5.7zm71.9 0.6c-9.5 0-14.5 0.3-14.8 1-0.2 0.6-0.3 5.1-0.1 10l0.3 8.9 11.5 0.3c6.3 0.1 11.8 0.6 12.2 1 0.7 0.7 0 9.2-1.6 21.8-0.4 2.8-0.1 3.2 2.9 4.1 3 1 3.4 0.8 4-1.1 1-3.6 1.9-45.6 0.9-45.7-0.5-0.1-7.4-0.2-15.3-0.3zm-307.7 4.9l-2.4-5 0.6 4c0.7 5.2 4.6 15 5.9 15 0.6 0 2.5-4.2 4.2-9.4 3.4-9.7 2.4-10.9-1.7-2.1-2.3 4.8-3.9 6.4-4.1 3.7 0-0.6-1.1-3.5-2.5-6.2zm19.8-3.4c-2.5-1.3-2.6-1.3-5.8 8.1-3.1 9.2-3 9.8 0.6 6.3l3-2.9 4.6 2.3c4.2 2 4.6 2 3.9 0.4-0.4-1-1.2-3.2-1.8-4.8-1.4-4.1-1.4-4.1-3.6-1.4l-1.9 2.4-1.3-2.9c-1-2.1-1-3.1-0.3-3.3 0.6-0.2 1.9-1 2.9-1.7 1.8-1.3 1.8-1.4-0.3-2.5zm9.9 0.4c-0.7-1.6-0.9-1.4-1.4 1.4-0.4 1.9-0.7 6-0.7 9.2v5.9h4.4c2.4 0 6.4 0.3 9 0.6l4.6 0.7v-9.7c0-9.1-0.1-9.6-2.1-9.6-1.9 0-2 0.4-1.4 6.6 1.1 9.8 1.1 9.9-0.2 9.8-0.7-0.1-3.5-0.2-6.3-0.3l-5-0.1-0.1-6.3c0-3.4-0.4-7.1-0.8-8.2zm25.4-1.3l-4.5-0.5v19.6l4-0.6c2.3-0.3 5.2-1.3 6.6-2.2 5-3.3 5.5-11.1 0.8-14.2-1.3-0.8-4.4-1.8-6.9-2.1zm139.5-0.2h-15.2c-10.9 0-14.9 0.3-14.1 1.1 2 2 8.8 2.9 17.1 2.3l8.2-0.7v6.9c0 3.8-0.3 8-0.7 9.3-0.6 2.2-0.8 2.3-7.8 1.6-4-0.3-9.4-0.3-11.9 0l-4.6 0.7v24.8l10.3-0.1c5.6 0 12-0.4 14.2-0.8 3.8-0.7 3.9-0.8 1.5-1.6-1.4-0.5-6.9-0.8-12.2-0.7l-9.8 0.2v-18h23.7l0.7-3.8c0.3-2 0.6-7.6 0.6-12.5zm86.5 0.5l-15.2-0.3-15.3-0.3v20.1h24.2l-0.8 9.2c-1.3 15.5-1.3 16.1 1.9 17.6 1.6 0.8 3.1 1.2 3.3 0.9 1-1 2.5-25.6 2.2-36.2zm-208.7 14c-1.6-0.7-1.8 0.1-1.8 8.5 0 9 0 9.1 2.3 8.4 4.5-1.4 18.7-7.6 19.2-8.4 0.2-0.4-3.7-2.3-8.8-4.3-5-1.9-10-3.9-10.9-4.2zm-58.8 19.3c0 6.5 0.2 7.3 1.8 7 1.1-0.2 1.8-1.4 2-3.6 0.2-1.7 0.7-3.2 1.3-3.2 1.4 0 1.1-3.5-0.7-8-2.8-7-4.4-4.3-4.4 7.8zm10.3-7.2c-2 2.7-2.8 4.5-2.1 5.2 0.5 0.5 1.5 2.7 2.3 4.8 0.7 2.2 2 4 2.9 4.2 1.4 0.3 1.6-0.8 1.5-7.5-0.1-11-0.7-11.9-4.6-6.7zm-15.2-3.6h-3.8c-2.1 0-4.5 0.5-5.3 1-1.2 0.8-1.1 1 0.8 1 1.9 0 2.2 0.5 2.3 4.2 0 2.4 0.3 6.1 0.8 8.3 0.7 4 0.7 4 1.4-2.3 0.4-3.4 1.4-7.6 2.2-9.2zm28.4 0h-5.5v7.7c0 9.6 1.1 11.9 3.4 7.4l1.7-3.2 4.4 3.7c4.9 4 5.3 3.9 2.9-0.8-1.4-2.6-1.4-3.7-0.4-6.8 0.9-2.8 0.9-4.2 0.1-5.9-1-1.7-2.1-2.1-6.6-2.1zm12.6 0.2c-1.2-0.4-1.3 0.9-0.8 7.8 0.4 4.6 0.9 8.5 1.1 8.8 0.3 0.2 2.5 0.7 4.8 0.9 5.9 0.7 7-0.9 7.6-10.4 0.4-6.2 0.2-7.5-0.9-7.1-0.9 0.3-1.5 2.2-1.7 4.9-0.5 9-1.1 10.9-3.6 10.9-3.5 0-4.5-1.9-4.8-9-0.2-4.4-0.7-6.5-1.7-6.8zm-340.8 82.7c-6.8 3.2-8.2 5.2-10.3 14-2.9 12.3 1 24.3 9.5 29.6 4.1 2.5 5.8 3 11.5 3 5.5 0 7.3-0.5 10.6-2.6l3.9-2.6 1.8 2.3c1.2 1.6 2.8 2.4 4.6 2.4 2.6 0 3.1-0.6 5.4-6.3l2.5-6.2h15.7l2.5 5.3c2.7 5.8 4.3 7.2 7.8 7.2 2.1 0 2.3-0.3 1.7-3.3-0.4-1.7-4-12.4-8-23.7l-7.3-20.5h-8.5l-2.2 6.5c-1.3 3.6-3.6 10.1-5.3 14.5-1.6 4.4-3.5 10.6-4.2 13.7-1.2 5-1.6 5.8-3.7 5.8-1.8 0-2.3-0.5-2.3-2.6 0-2.9-1.3-2.8-8.2 0.7-7.6 3.8-14.8 1.7-18.5-5.4-1.8-3.6-2.1-16.6-0.4-21 0.6-1.4 3.1-3.8 5.6-5.2 5.3-3.2 9.3-2.9 16.3 1.2 2.4 1.3 4.6 2.2 4.9 1.9 0.4-0.3 0.1-2.4-0.6-4.6-0.9-3.2-1.9-4.3-4.8-5.5-5.8-2.4-12.9-1.9-20 1.4zm211.4 4c-3.8 4.6-5 10.1-4.5 21.4 0.5 9.8 0.5 9.8 4.4 13.9 4.8 5 10.5 7.7 16.1 7.8 5.4 0 8.8-1.3 13.9-5.6 4.9-4 6.4-8.8 6.4-20.7 0-9.5-3.1-16.4-9-20.3-8.4-5.6-21-3.9-27.3 3.5zm48.2-6.3l-2.6-0.6-0.6 14.3c-0.4 7.8-0.7 18.5-0.7 23.9v9.6l7.3 0.7c3.9 0.3 10.6 0.5 14.7 0.3l7.5-0.3v-7l-10.2-0.3-10.3-0.3v-18.2c0-13.2-0.4-18.8-1.2-19.9-0.7-0.9-2.5-1.8-3.9-2.2zm-184.9 0.6c-0.1 0.2-0.3 10.5-0.6 23-0.4 21.8-0.4 22.7 1.5 23.8 1.1 0.5 2.9 1 4 1 1.9 0 2-0.7 2.3-8.6 0.3-7.4 0.6-8.9 2.3-10 1.9-1.3 2.6-0.7 10.3 8.6 8.2 10 8.2 10 12.7 10 2.5 0 4.5-0.3 4.5-0.6 0-0.9-6.5-9.1-11.2-14l-3.9-4.1 3.2-5.3c2.2-3.6 3.4-6.9 3.7-10.5 0.4-4.4 0.1-5.5-2.3-8.3-1.4-1.7-4.3-3.6-6.3-4.2-3.1-0.8-20.1-1.5-20.2-0.8zm52.8 0l-10.8-0.4v48.5l9.8-0.6c11.6-0.6 17.7-2.6 22.2-7.2 3.6-3.7 4.9-8.4 5-17.8 0-9.5-3.6-15.8-11.5-20-3.1-1.6-6.3-2.2-14.7-2.5zm42.2-0.2h-7.3l0.6 20.2c0.3 11.2 0.9 21.6 1.4 23.3 0.9 2.9 1 2.8 1.9-2.5l0.8-5.5 0.4 5.7c0.5 9.9 2.1 6.3 2.4-5.5l0.3-11.2h10l10 0.1 0.6 21.4h6.9v-46h-8v18h-20zm130.6 0h-8.6v47h9.3c11.3 0 15.7-1.2 20.4-5.3 10.2-8.9 10.2-27.5 0.1-36.1-2.1-1.9-5.9-3.9-8.3-4.5-2.4-0.6-8.2-1.1-12.9-1.1zm67.4 0h-30v47h30v-6h-10.9c-6.1 0-11.3-0.4-11.6-1-0.3-0.5-0.3-4.2 0.1-8.3l0.6-7.3h10.2l10.1 0.1v-6l-10.2-0.3-10.3-0.3v-11.9h22zm18.6 0h-9.6v47h3.5c3.4 0 3.5-0.1 3.5-3.9 0-2.1 0.3-6.6 0.6-9.9l0.7-6.1 2.9 1.5c1.5 0.8 5.6 4.8 8.9 8.9 6.1 7.4 11.2 10.9 15.1 10.3 1.9-0.3 1.4-1.2-4.6-8.8-3.8-4.7-7.3-9.1-7.9-9.8-0.7-0.9-0.4-1.9 1-3.5 8.5-9.2 8.1-19.7-1-24-2.5-1.2-6.2-1.7-13.1-1.7z"/><path  d="m628 96.9l3.8 0.6c8.4 1.4 9.8 1.8 11.5 3.3 2.1 1.8 2.3 8 0.3 10.7-1.1 1.5-3 2-8.5 2.3l-7.1 0.4v-8.6z"/><path  d="m628 126.7l7.5 0.6c8 0.7 12.8 2.5 13.9 5.2 1.2 3.3 0.6 8.5-1.3 10.4-2.5 2.5-8.2 4.1-14.8 4.1h-5.3v-10.1z"/><path  d="m708.7 133.5c0.1 0 0.3 2.9 0.4 6.5l0.3 6.4-4 1.8c-7.3 3.3-12.6 1.9-13.6-3.6-1-5.2 0.6-7.4 6.4-9 2.9-0.8 6.4-1.6 7.8-1.8 1.4-0.2 2.6-0.4 2.7-0.3z"/><path  d="m1003.3 133.7c0.4 0.2 0.7 3.3 0.7 6.9 0 6.1-0.1 6.5-2.7 7.5-8.9 3.5-15.6 1.3-15.6-5 0-4.7 3.1-7.2 10.5-8.6 3.5-0.7 6.6-1 7.1-0.8z"/><path  d="m1166.4 122.7c0.7 2.3 0.7 2.3-9.1 2.2-5.4-0.1-10.8-0.4-12-0.7l-2.2-0.7 2.2-4c1.3-2.2 3.8-4.8 5.7-5.8 7-3.6 12.6-0.3 15.4 9z"/><path  d="m680.1 445h13.1l-0.4 6.5c-0.2 3.5-0.7 6.8-1.2 7.2-0.4 0.4-6.2 0.8-12.9 0.8h-12.2l-0.3-5.9c-0.2-3.2-0.1-6.5 0.2-7.2 0.4-1.1 3.5-1.4 13.7-1.4z"/><path  d="m735.3 445.1l2.7-0.1v10.5 10.4l-3.6 0.7c-1.9 0.3-3.9 0.3-4.4-0.2-0.4-0.5-1.1-5.3-1.4-10.6-0.7-9.5-0.7-9.7 1.6-10.1 1.3-0.2 3.5-0.5 5.1-0.6z"/><path  d="m735.9 473.7l9.2 0.6-0.3 9.6-0.3 9.6h-11.5-11.4l-0.8-3.5c-0.4-1.9-0.5-6.5-0.2-10.3 0.8-7.7-0.6-7.2 15.3-6z"/><path  d="m842 478.3l11.5 0.2 0.3 7.1 0.3 7.1-12.1 0.7c-6.7 0.4-12.5 0.4-13 0.1-1.5-0.9-1.2-14.2 0.3-14.9 0.6-0.2 6.4-0.4 12.7-0.3z"/><path  d="m452 480h13 13v6.4 6.3l-7.7 0.7c-4.2 0.3-9.7 0.6-12.3 0.6-4.7 0-4.7 0-5.4-3.8-0.3-2-0.6-5.2-0.6-7z"/><path  d="m574.8 445.6l3.1 0.6-0.6 9.7c-0.3 5.3-0.7 9.8-0.9 9.9-0.1 0.2-2 0.6-4.2 0.9l-3.9 0.5-0.6-4.7c-0.4-2.6-0.7-7.6-0.7-11.1 0-7.1 0.3-7.3 7.8-5.8z"/><path  d="m560.3 473h12.3 12.4v8.2c0 4.6 0.3 9.3 0.6 10.5l0.6 2.3h-13.6-13.6v-5.9c0-3.2 0.3-7.9 0.6-10.5z"/><path  d="m210.3 534.1c0.4-0.1 0.7 2.4 0.7 5.4v5.5h-5c-5.8 0-5.8-0.2 0-6.8 1.9-2.2 3.8-4.1 4.3-4.1z"/><path  d="m590 548h4c2.7 0 4.3 0.5 4.6 1.5 1 2.5-0.6 8.5-2.8 10.7l-2.1 2.1-1.9-2.3c-1.2-1.5-1.8-3.9-1.8-7.1z"/><path  d="m714 549c2.3 0 2.6 1.3 0.7 2.9-1.5 1.2-2.7 0.5-2.7-1.6 0-0.7 0.9-1.3 2-1.3z"/><path  d="m733 579h10v6 6.1l-10.2-0.3-10.3-0.3-0.3-4.4c-0.2-2.4-0.1-5 0.2-5.7 0.4-1.1 2.9-1.4 10.6-1.4z"/><path  d="m480.3 577c2.1 0 5.8 3 6.7 5.6 1.7 4.3-2 10.3-6.2 10.4-1.6 0-1.8-1-1.8-8 0-5.8 0.3-8 1.3-8z"/><path  d="m690 579c5.4 0 10.1 0.4 10.4 0.9 0.3 0.4 0.3 3.1-0.1 6l-0.6 5.1h-9.7-9.7l-0.6-5.1c-0.4-2.9-0.4-5.6-0.1-6 0.3-0.5 5-0.9 10.4-0.9z"/><path  d="m465 604.5c0 1.8-0.5 2.5-1.8 2.5-2.5 0-3.1-0.7-2.5-3.1 0.8-2.9 4.3-2.5 4.3 0.6z"/><path  d="m184.2 695.5c1 3.3 2.1 7.5 2.4 9.2l0.6 3.3h-5.1c-4 0-5.1-0.3-5.1-1.6 0-2.1 3-12.4 4.3-14.9 0.9-1.7 1.3-1.2 2.9 4z"/><path  d="m368.6 687.5c3.9 2.5 5.7 7.3 6.2 16.3 0.4 8.1 0.4 8.4-2.4 11.4-3.8 3.9-7.5 5.8-11.6 5.8-4.1 0-6.6-1.7-10.3-6.9-2.6-3.9-2.8-4.6-2.2-11.6 0.7-8.9 2.8-13.2 7.7-15.8 3.9-2 8.8-1.7 12.6 0.8z"/><path  d="m225.5 687.3c5.7 1.2 6 1.4 5.7 4.1-0.2 1.5-0.9 4.4-1.6 6.4-1.3 3.7-1.3 3.7-7.4 4l-6.2 0.3v-8.1c0-9.1-0.5-8.8 9.5-6.7z"/><path  d="m257.7 685.7l5.9 0.7c11.5 1.3 16.3 6.2 17.9 17.9l0.7 5.2-4.7 4.2c-4.8 4.4-16.1 9-17.9 7.3-0.4-0.5-1.1-8.6-1.4-18.1z"/><path  d="m433 685.8l6.3 0.7c3.4 0.4 7.5 1.5 9.2 2.4 8.8 5 10.1 20.7 2.3 27.9-2.7 2.4-13.3 5-16.2 3.9-1.4-0.6-1.6-2.9-1.6-17.8z"/><path  d="m519 686h3c8.1 0 13.4 5.4 10.8 10.8-1.5 3-4.4 4.6-10 5.6l-3.8 0.7v-8.6z"/></svg>