<svg version="1.2" xmlns="http://www.w3.org/2000/svg" viewBox="0 0 1280 1100" width="480" height="260"><style></style><path fill-rule="evenodd" d="m384.4 0c43.6 0 43.9 0 47.8 2.2 7.2 4.1 6.8-1.7 6.8 93.8 0 94.5 0.3 90.3-6 93.5-2.5 1.3-9.7 1.5-48.7 1.5-44 0-45.9-0.1-49.1-2-1.8-1.1-3.7-3.2-4.2-4.6-0.6-1.6-1-35.1-1-88.5 0-95.6-0.4-90.1 6.8-93.8 3.5-1.9 5.9-2 47.6-2.1zm37.6 18h-37.3c-20.6 0-37.7 0.3-38 0.7-0.4 0.3-0.7 32.5-0.7 71.5v70.8h76zm-43.8 158.6c0.4 3.7 3.9 4.9 7 2.5 1.9-1.6 2.1-2.3 1.3-4.7-2-5.6-9-3.7-8.3 2.2z"/><path fill-rule="evenodd" d="m1216.5 22.6c23.3 6.3 43.6 23.4 53.1 45.1 7.5 16.9 8.5 39.7 2.5 57.2-10.3 30.2-35 50.3-66.8 54.3-36.8 4.7-72.3-18.2-84.9-54.7-2.6-7.4-2.8-9.1-2.8-24.5-0.1-16 0-16.8 3-25.2 10.3-28.8 33.3-48.4 63.2-53.8 6.7-1.3 25.7-0.3 32.7 1.6zm-86.7 56.9c-2 6-2.3 9-2.3 20.5 0 11.6 0.3 14.5 2.4 20.5 3.9 11.7 8.7 19.3 18 28.6 6.9 6.9 10.3 9.4 17.1 12.7 11.5 5.7 19.4 7.5 31.5 7.5 12.2 0 20.1-1.9 31.3-7.5 10.4-5.2 21.5-15.2 27.6-25.1 18.4-29.7 12.1-68.2-14.7-90.5-6.3-5.2-19-11.6-27.2-13.7-35.7-9.1-71.7 11.1-83.7 47z"/><path  d="m1200.8 40.6c4.1 2.9 1.8 10.4-3.3 10.4-5.1 0-7.7-5.3-4.4-9.3 2.3-3.1 4.5-3.4 7.7-1.1z"/><path  d="m1198.7 60h3.3v18.5c0 15.1 0.3 19.1 1.7 21.9 1.3 2.9 1.4 3.9 0.4 6.4-2.5 6.1-10.4 6.3-13.5 0.5-1.1-2.2-3.9-3.9-12.8-7.7-6.2-2.7-11.5-5-11.7-5.2-0.5-0.4 0.7-4.6 1.7-6.2 0.7-1 3.5-0.2 12.6 3.8 6.4 2.8 12.1 4.8 12.6 4.5 0.6-0.4 1-7.8 1-17.9 0-9.5 0.3-17.6 0.7-17.9 0.3-0.4 2.1-0.7 4-0.7z"/><path  d="m1146.3 107.2c-3.7 4.1-11.1 0.3-9.8-5 0.3-1.5 1.3-3.3 2.2-4 5.7-4.3 12.4 3.7 7.6 9z"/><path  d="m1254.8 98.6c4.2 2.9 1.8 10.4-3.5 10.4-2.8 0-6.3-3.3-6.3-6 0-1.1 0.9-2.9 2-4 2.4-2.4 4.8-2.5 7.8-0.4z"/><path  d="m1202.8 150.2c0.7 0.7 1.2 2.6 1.2 4.3 0 3.9-1.6 5.5-5.6 5.5-3.6 0-5.6-1.9-5.6-5.5 0-1.4 0.5-3.2 1.2-4 1.5-1.8 7.1-2 8.8-0.3z"/><path fill-rule="evenodd" d="m89.9 31c58.3 0 77 0.3 77.9 1.2 1.9 1.9 1.7 110.1-0.1 111.7-0.9 0.7-11.6 1.2-32.8 1.3l-31.4 0.3v13l28.4 0.3c19.5 0.1 28.9 0.6 29.8 1.4 1 0.8 1.3 3.1 1.1 8.1-0.3 7.1-0.3 7.1-3.5 7.9-1.8 0.5-33.2 0.7-69.8 0.6-57.9-0.3-66.7-0.5-67.5-1.8-1.5-2.3-1.2-13.6 0.3-14.9 0.9-0.7 10.6-1.2 28.8-1.3l27.4-0.3v-13l-33.3-0.5c-28.1-0.4-33.4-0.7-34.2-2-0.6-0.9-1-23.1-1-55.2 0-47.5 0.2-53.8 1.6-55.2 1.4-1.4 9.9-1.6 78.3-1.6zm69.1 15h-69.3c-38.2 0-69.7 0.3-70 0.7-0.4 0.3-0.7 18.5-0.7 40.3 0 32.3 0.3 40 1.4 40.9 0.9 0.8 20 1 69.7 0.9l68.4-0.3 0.3-41.3zm-66.2 88.4c-1.3-1.4-1.7-1.4-3.1 0.1-0.9 0.8-1.4 2.2-1.1 3 0.8 2 4.3 1.9 5.1-0.1 0.3-0.8-0.1-2.2-0.9-3z"/><path fill-rule="evenodd" d="m924.8 32c58.6 0 68.7 0.2 71.2 1.5 6.3 3.3 6 0.1 6 65.8 0 65.6 0.1 64-6 67.2-4.4 2.2-137.6 2.3-142 0-6.3-3.3-6-0.1-6-66.3 0-40.7 0.3-61 1.1-62.3 0.5-1.1 2.5-2.9 4.2-3.9 3.1-1.9 5.6-2 71.5-2zm0.2 7c-64.7 0-66 0-68 2-1.9 1.9-2 3.3-2 50.7 0 27.9 0.4 49.4 0.9 50.2 1.2 1.8 0.7 2.6 14-24.4 10.4-21.2 13.2-25.5 18.1-27.5 2.6-1.1 3.7-1 7.5 0.4 5.6 2.2 10.3 7.3 28 30.9 7.7 10.2 14.6 18.5 15.3 18.4 0.7-0.1 3.7-5.7 6.7-12.4 6.7-15 9.6-19.8 13.8-22.3 8.5-5.2 14.4-0.9 26.2 19.4 3.7 6.4 7.3 11.5 7.9 11.3 0.8-0.3 1.2-13.4 1.4-46.5 0.2-45.1 0.2-46.2-1.8-48.2-2-2-3.2-2-68-2z"/><path  d="m977.8 51.4c5.1 2.6 7.7 6.4 7.7 11q0 8.1-7.8 11.7c-5.3 2.3-10.1 2.4-15.2 0-5.5-2.5-7.7-5.3-8.2-10.3-0.5-5.3 2-9.7 6.8-12.1 4.2-2 13.1-2.2 16.7-0.3z"/><path fill-rule="evenodd" d="m643.1 40c68.4 0 76.9 0.2 78.3 1.6 1.4 1.4 1.6 7.7 1.6 55 0 34.6-0.4 54.2-1 55.4-1.1 2.1-0.9 2.5 6.4 8.7l3.7 3.2-0.6 15.6-87.2 0.3-87.3 0.2v-8.5c0-8.6 0-8.6 3.6-11.9l3.6-3.3-0.2-56.7c0-41.8 0.2-57.2 1.1-58.2 1-1.2 13.4-1.4 78-1.4zm-68.3 14.7c-1.7 0.4-1.8 3.2-1.8 41.3 0 36.3 0.2 40.9 1.6 41.4 0.9 0.3 31.8 0.6 68.8 0.6 50.9 0 67.5-0.3 68.4-1.2 0.9-0.9 1.2-11.4 1.2-41 0-38.3-0.1-39.8-1.9-40.8-1.9-1-132.5-1.3-136.3-0.3zm71.3 88.4c-2.3-1.3-4.7 1-3.7 3.4 1.1 2.9 5.6 1.2 5.6-2 0-0.3-0.9-0.9-1.9-1.4z"/><path fill-rule="evenodd" d="m662.9 330.5c6.6 7.6 6.5 7 7.1 50l0.5 39 15.3 0.3 15.2 0.3v6.2c0 14.4-5.8 27.7-16.9 38.8-8.6 8.6-16.3 13-27.5 15.8l-7.1 1.7v13.9l19.8 0.5c19.4 0.5 19.9 0.6 21.8 2.9 1.4 1.7 1.9 3.9 1.9 8.1 0 12.6 2.4 12-50.9 12-24.2 0-44.7-0.3-45.6-0.6-4.8-1.9-6.2-14.3-2.1-19.1l2.4-2.8 20.9-0.5 20.8-0.5v-13.9l-7-1.8c-24.8-6.4-41.8-26.4-44.1-52.1l-0.7-7.7h12.9c7.1 0 13.9-0.3 15.1-0.6l2.2-0.6 0.3-39.7c0.3-38.4 0.4-39.7 2.5-43.6 2.8-5.3 7.8-9.9 13.3-12.4 9.8-4.4 22.8-1.6 29.9 6.4zm-61.1 102.6c-1.5 0.8-1.6 1.4-0.3 5.4 4 13.6 14.9 24.6 29.1 29.6 4.8 1.7 7.7 2 15.5 1.7 8.7-0.3 10.3-0.7 17.1-4 4.5-2.3 9.5-5.8 12.6-8.9 5.8-5.7 11.3-15.9 11.5-21.1l0.2-3.3-6.5-0.3c-8.6-0.4-11 0.3-11 3.1-0.1 3.1-3.2 9.6-6.5 13.5-6.6 7.8-19.5 10.8-29.7 6.9-6.4-2.5-13.2-9.9-15.2-16.8-0.9-2.9-2.2-5.6-2.9-6.1-1.7-1.1-11.9-0.9-13.9 0.3z"/><path  d="m921.3 343.7c0.4 0.2 0.7 5.4 0.7 11.5 0 9.4-0.3 11.3-1.9 13.5-3.2 4-4.6 12.3-3.2 18.7 0.7 3 2.1 6.6 3.2 7.9 1.4 1.8 1.9 4.1 1.9 8.2v5.7l-7.2-0.7c-14.2-1.3-36.2-5.6-38.1-7.4-1-1 2.5-14.2 5.8-22.1 7.6-18 21.4-32 34.2-34.9 2.1-0.4 4.1-0.6 4.6-0.4z"/><path  d="m940.6 347.1c9.2 4.4 18.1 14.2 24.4 27.1 5 10.3 9.5 25.5 8 27.2-2.7 2.9-39.8 9-44.3 7.3-2.8-1-2.3-9.2 0.7-12.8 3.5-4.1 5-12.5 3.6-19.4-0.6-3-2.2-6.8-3.6-8.4-2.2-2.7-2.4-3.7-2.4-13.3 0-5.8 0.3-10.7 0.6-11.1 1.1-1.1 6.7 0.4 13 3.4z"/><path fill-rule="evenodd" d="m1153.8 348.2c1.5 0.3 1.7 1.8 2 11.6l0.3 11.3 10.4-0.6 0.5-11c0.4-8.9 0.8-11 2-11 1.2 0 1.6 2.1 2 11l0.5 11 12.4 0.6 0.3-11.3c0.3-9.8 0.5-11.3 2.1-11.6 1.5-0.3 1.7 0.7 1.7 10 0 5.7 0.4 10.9 0.9 11.6 0.5 0.9 2.5 1.2 5.7 1l4.9-0.3 0.5-11c0.4-8.9 0.8-11 2-11 1.2 0 1.6 2.1 2 11l0.5 11 11.4 0.6 0.3-11.3c0.2-9.3 0.6-11.3 1.8-11.3 1.2 0 1.6 2.1 2 11l0.5 11 12.4 0.6 0.3-11.3c0.3-9.8 0.5-11.3 2.1-11.6 1.5-0.3 1.7 0.7 1.7 9.6 0 11.6 0.4 13.2 3.4 13.2 4.2 0 6.7 1.3 8.2 4.1l1.5 2.9h10.2c10.2 0 13.6 0.8 12.3 2.9-0.5 0.7-4.4 1.1-10.6 1.1-5.4 0-10.5 0.3-11.4 0.6-1.2 0.5-1.6 2.1-1.6 6.5v5.9h10.1c5.5 0 11 0.5 12.1 1.1 2.1 1.1 2.1 1.2 0.3 2.5-1.3 1-5 1.4-12.2 1.4h-10.3v5.4c0 4 0.4 5.5 1.6 6 0.9 0.3 6 0.6 11.4 0.6 5.4 0 10.1 0.4 10.4 0.9 1.3 2-2.6 3-12.5 3.3l-10.4 0.3v10l10.4 0.3c9.9 0.3 13.8 1.3 12.5 3.3-0.3 0.5-5 0.9-10.4 0.9-5.4 0-10.5 0.3-11.4 0.6-1.2 0.5-1.6 2-1.6 6.4 0 4.4 0.4 5.9 1.6 6.4 0.9 0.3 6 0.6 11.4 0.6 5.4 0 10.1 0.4 10.4 0.9 1.3 2-2.6 3-12.5 3.3l-10.4 0.3v10l11.5 0.5c9.3 0.4 11.5 0.8 11.5 2 0 1.2-2 1.6-11.2 1.8l-11.3 0.3-1.5 2.9c-1.3 2.5-2.2 3-5.3 3-2.1 0-4.3 0.5-5 1.2-0.8 0.8-1.2 4.8-1.2 11.4 0 6.5-0.4 10.5-1.1 11-2.1 1.3-2.9-2.1-2.9-12.2 0-11.3-0.1-11.4-7-11.4-2 0-4.2 0.6-4.8 1.3-0.6 0.7-1.3 6-1.4 11.8-0.2 8.4-0.6 10.4-1.8 10.4-1.2 0-1.6-2-1.8-11-0.3-11.9-0.6-12.5-6.2-12.5-5.6 0-5.9 0.6-6.2 12.5-0.2 9-0.6 11-1.8 11-1.2 0-1.6-2-1.8-11-0.3-11.9-0.6-12.5-6.3-12.5-5.3 0-5.9 1.2-5.9 12.6 0 9.5-0.9 12.9-2.8 10.9-0.4-0.4-0.9-5.7-1.2-11.8l-0.5-11.2-5.1-0.3c-3.4-0.2-5.5 0.2-6.2 1.1-0.6 0.7-1.3 5.9-1.4 11.8-0.2 8.4-0.6 10.4-1.8 10.4-1.2 0-1.6-2-1.8-11.2-0.3-10.9-0.3-11.3-2.6-11.9-1.3-0.3-3.7-0.4-5.2-0.2l-2.9 0.3-0.5 11.2c-0.3 6.1-0.8 11.4-1.2 11.8-1.9 2-2.8-1.4-2.8-10.9 0-11.4-0.4-12.2-5.9-12.8-2.1-0.2-3.8-1.1-4.5-2.3-0.6-1.1-1.2-2.2-1.4-2.5-0.2-0.3-4.7-0.7-10-1-7.7-0.4-9.7-0.8-9.7-2 0-1.2 2-1.6 10-2l10-0.5v-10l-10-0.5c-8-0.4-10-0.8-10-2 0-1.2 1.8-1.6 8.9-1.8 5-0.2 9.6-0.8 10.3-1.4 0.9-0.7 1.3-2.8 1.1-6.2l-0.3-5.1-9.7-0.5c-5.3-0.3-9.9-0.8-10.3-1.2-1.8-1.8 1.3-2.8 8.9-2.8 10.3 0 11.9-0.9 11.4-7l-0.3-4.5-10-0.5c-8-0.4-10-0.8-10-2 0-1.2 2-1.6 10-2l10-0.5v-11l-10-0.5c-8-0.4-10-0.8-10-2 0-1.2 1.8-1.6 8.9-1.8 5-0.2 9.6-0.8 10.3-1.4 0.9-0.7 1.3-2.8 1.1-6.2l-0.3-5.1-8-0.3c-9.7-0.3-12.8-0.9-12.2-2.5 0.2-0.8 3.7-1.4 9.7-1.7 9.1-0.5 9.4-0.6 11-3.5 1.2-2.1 2.8-3.3 5.6-4 2.1-0.5 4.2-1.4 4.6-2 0.4-0.5 0.8-5.6 0.8-11.3 0-9.3 0.2-10.3 1.8-10zm42.4 39.8c-26.2 0-31.1 0.2-33 1.6-2.2 1.5-2.2 1.6-2.2 31.8 0 27 0.2 30.5 1.7 31.7 1.3 1.1 7.9 1.5 31.2 1.7 16.3 0.2 30.6 0 31.8-0.3 5.3-1.3 5.3-1.4 5.3-33.1 0-28.1-0.1-29.5-2-31.4-1.9-1.9-3.3-2-32.8-2z"/><path  d="m1195.5 396c18.3 0 22.4 0.3 24.3 1.6 2.2 1.5 2.2 1.9 2.2 23.9 0 19-0.2 22.6-1.6 23.9-1.3 1.4-5 1.6-25.3 1.6-17.1 0-24-0.3-24.9-1.2-0.9-0.9-1.2-7.6-1.2-23.9 0-22.4 0-22.8 2.2-24.3 1.9-1.3 6-1.6 24.3-1.6z"/><path fill-rule="evenodd" d="m367.1 361l23.2 0.2 23.2 0.3 0.6 15.4 21.5 0.3c21.3 0.3 21.6 0.3 23.5 2.7 1.8 2.2 1.9 4.6 1.9 49.4 0 47 0 47.1-2.2 49.4l-2.1 2.3h-144.1l-2.3-2.2-2.3-2.1v-47.7c0-55-0.8-50.8 10.2-51.7 3.5-0.3 6.6-1.1 7-1.7 0.4-0.6 0.8-2.8 0.8-4.9v-3.7h20v10.1l10.3-0.3 10.2-0.3 0.3-7.8zm-21.1 20c-10.7 0-13 1.4-13 7.8 0 6.1 2 7.2 13.3 7.2 9.1 0 9.6-0.1 11.6-2.6 2.8-3.5 2.6-6.9-0.4-9.9-2.2-2.3-3.2-2.5-11.5-2.5zm36.4 23.9c-9.7 2.5-18.4 9.4-23.1 18.3-2.5 4.8-2.8 6.3-2.8 15.3 0 8.9 0.3 10.5 2.7 15 5 9.4 12.6 15.5 22.7 18.1 8 2 14.7 1.3 22.7-2.5 15.9-7.5 23.4-26.2 17.3-42.8-2.8-7.7-12.2-17.2-19.4-19.7-5.9-2-15.7-2.8-20.1-1.7z"/><path  d="m400.3 415.5c4.8 2.3 9.2 6.6 11.8 11.6 8.3 16.5-4 36.3-22.6 36.2-7 0-11.7-1.8-16.9-6.3-5.8-5.1-8-10.3-8.1-18.5 0-5.9 0.5-7.8 2.9-12.3 3.2-5.7 7.5-9.5 13.4-11.7 4.8-1.9 14.6-1.4 19.5 1z"/><path fill-rule="evenodd" d="m89.3 368c57.2 0 75.6 0.3 76.5 1.2 1.7 1.7 1.7 101.9 0 103.6-0.9 0.9-19.1 1.2-75.9 1.2-66.6 0-74.9-0.2-76.3-1.6-1.4-1.4-1.6-7.4-1.6-51 0-32.2 0.4-50.2 1-51.5 1-1.9 2.9-1.9 76.3-1.9zm66.2 12.5l-65.8-0.3c-52.2-0.2-65.9 0-66.2 1-0.3 0.7-0.4 18-0.3 38.3l0.3 37h132zm-68.6 79.5c-4.4 2.6-2.4 11 2.6 11 5.1 0 7.3-6.2 3.5-10-2.2-2.2-3.7-2.4-6.1-1z"/><path  d="m925 373c2.7 0 4 3 4 8.8 0 3.5-0.6 5.7-2 7.3l-2 2.4-2-2.4c-2.2-2.6-2.8-10.8-1-14.2 0.6-1 1.9-1.9 3-1.9z"/><path  d="m875.9 408c0.3 0 5.9 1.3 12.3 3 25.4 6.4 55.3 5.8 79.5-1.5 8.1-2.5 7.6-3.5 7 15.2-0.6 20-2.4 27.9-9.7 42.8-13.7 28.3-38.1 38.8-59.2 25.3-11.7-7.4-23.4-25.6-27.8-43.3-2.5-9.7-4.1-26.8-3.3-35.3 0.3-3.4 0.9-6.2 1.2-6.2z"/><path fill-rule="evenodd" d="m439.7 700c-0.6 9.8-3.1 17.5-9 26.8-6 9.5-9.5 20.3-11.2 34.4-0.6 5-0.4 6 1.9 9.4 4.4 6.6 3.2 12.6-3.8 18.6-2.8 2.4-2.9 2.6-1.3 4.9 2.6 3.6 2.1 5.4-2.3 9.2-3.5 3-3.9 3.8-3.4 6.5 0.5 2.7 0.1 3.7-2.8 6.6-8.9 8.9-33.7 8.9-42.6 0-3-3-3.3-3.9-2.8-6.8 0.6-3 0.3-3.7-2.4-5.6-4.4-3.1-5.4-5.6-4-9.1 1.2-2.7 1-3.1-3.4-7.1-5.6-5.2-6.8-9.5-4-15.3 1.5-3.3 1.6-4.7 0.6-12.1-1.7-13.1-5-23.7-9.3-30.6-8.1-12.9-10.9-21.4-10.9-33.5 0-26.5 20.9-49.8 47.8-53.2 34.9-4.3 65 22.9 62.9 56.9zm-94-20.2c-2.6 5.4-3.2 8.2-3.5 14.9-0.5 10.2 1.3 16.7 6.9 25.3 5.5 8.5 8.2 15.4 10.8 27.4 1.2 5.5 2.4 10.3 2.7 10.8 0.7 1 43.1 1.1 43.8 0 0.3-0.5 1.4-5.1 2.4-10.3 2.4-11.4 5.7-20.1 10.6-27.2 15.7-22.8 6-52.9-20.1-62.7-20.6-7.7-44.2 1.9-53.6 21.8zm28.3 95.3c-9.6 1.7-9.3 4.3 0.6 5.9 11 1.8 29.2 0.2 30.1-2.6 0.2-0.7-1.1-1.7-2.8-2.3-4.5-1.6-21.3-2.2-27.9-1z"/><path fill-rule="evenodd" d="m1211 662c18.8 0 18.9 0 19.2 12l0.3 8.5 22.6 0.5c28.3 0.6 26.9-0.1 26.9 14.3 0 14.5 1.5 13.7-25.1 13.7-11.9 0-22.4 0.3-23.3 0.6-1.3 0.5-1.6 2.7-1.6 13.4 0 10.7 0.3 12.9 1.6 13.4 0.9 0.3 11.3 0.6 23.2 0.6 26.7 0 25.2-0.8 25.2 13.5 0 14.7 1.4 13.9-27.1 14.3l-22.9 0.4v7.6c0 11.2 0.1 11.2-18.4 11.2-8.3 0-15.7-0.4-16.4-0.9-0.8-0.5-1.7-2.4-2.1-4.2-0.7-3.3-0.8-3.4-9.1-5.1-10.8-2.3-17.7-5.7-25-12.4-7.5-7-11.9-13.8-15.1-23.9l-2.7-8-13.6-0.3-13.7-0.3 0.6-12.4 27-1 1.7-6.4c2.8-10.4 6.6-17.1 13.9-24.4 7.8-7.8 16.2-12.3 26.7-14.1 7.9-1.3 9.2-2 9.2-4.8 0-1.2 0.7-3 1.7-4 1.4-1.6 3.3-1.8 16.3-1.8zm-28 26.4c-9.3 2.5-18.1 10.3-22.8 20.4-2.3 4.9-2.7 7-2.7 15.2 0 8.6 0.3 10.1 3.2 16.2 5.5 11.7 16.4 19.9 26.8 20.2l5 0.1 0.3-34.5c0.1-19 0-35.5-0.3-36.8-0.6-2.5-2.6-2.7-9.5-0.8zm73.8 1.6c-2.7 0-6.8 4.5-6.8 7.5 0 3 4.1 7.5 6.8 7.5 6.1 0 9.1-9.2 4.3-13.1-1.3-1.1-3.2-1.9-4.3-1.9zm-4.3 57.5c-3.2 3.1-3.3 7.4-0.2 10.3 2.6 2.4 4.8 2.7 7.8 1.1 4.8-2.5 4.3-11-0.8-13-3.5-1.3-4.1-1.2-6.8 1.6z"/><path fill-rule="evenodd" d="m90.1 663.1c35.9-0.1 44.9 0.2 45.8 1.2 0.6 0.8 1.2 7.6 1.3 17.3l0.3 15.9 15.5 0.5c16.6 0.5 18.1 0.9 22.4 6.1l2.6 3.1v32.9c0 36.5-0.1 37.2-6.3 40.9-2.8 1.7-5.1 2-17.5 2-8 0-15.2 0.5-16.3 1-1.6 0.9-1.9 2.2-1.9 9.1 0 7.6-0.1 8-2.6 8.9-3.4 1.3-85.4 1.3-88.8 0-2.5-0.9-2.6-1.3-2.6-8.9 0-6.9-0.3-8.2-1.9-9.1-1.1-0.5-8.2-1-16-1h-14l-3.5-3.1c-6.6-5.7-6.6-6-6.6-39.3 0-29.3 0.1-30.2 2.3-34 4.2-7.5 5.9-8.1 23-8.4 12.7-0.3 15.4-0.6 16.5-1.9 0.8-1.2 1.2-6.3 1.2-16.9 0-11.3 0.3-15.4 1.3-15.7 0.6-0.3 21.3-0.6 45.8-0.6zm-0.6 49.9c-54 0-71.4 0.3-72.3 1.2-0.9 0.9-1.2 8-1.2 25.9 0 13.6 0.3 25.4 0.6 26.3 0.5 1.3 2.3 1.6 8.8 1.6 7.6 0 8.4-0.2 10.7-2.6 4.9-5.4 5.4-5.4 52.7-5.4 24.2 0 45.4 0.3 47.2 0.6 1.7 0.4 4.7 2.2 6.5 4.1 3.3 3.4 3.3 3.4 11.6 3.1l8.4-0.3 0.3-26.4c0.2-20.5-0.1-26.6-1-27.3-0.7-0.4-33.3-0.8-72.3-0.8z"/><path  d="m31.1 727c3 0 4.2 0.6 5.4 2.4 3.1 4.7-2.3 9.1-8.4 7-2.9-1.1-4.1-5.5-2-8 0.6-0.8 2.9-1.4 5-1.4z"/><path  d="m51.5 727c3.6 0 6.5 2.1 6.5 4.7 0 2.7-3.1 5.3-6.3 5.3-5.6 0-8.6-5-5.1-8.4 0.8-0.9 3.1-1.6 4.9-1.6z"/><path  d="m72.9 727c4.5 0 6.4 1.8 5.9 5.7-0.2 1.9-1.1 3-2.9 3.7-6.1 2.1-11.5-2.3-8.4-7 1.2-1.8 2.4-2.4 5.4-2.4z"/><path fill-rule="evenodd" d="m646.5 665.3l45 0.2 6.9 2.7c9.5 3.7 17.2 9.2 22.2 16.1 7.5 10.1 8.2 13.2 12.1 53.2 3.9 40.3 3.8 45-1.4 53.3-4.2 6.8-9.9 9.5-18.8 8.9-12.2-0.7-17.1-4-35.5-24.2l-13.1-14.5h-39.4l-9.5 10.6c-20.7 23.1-28.2 28.4-40.6 28.4-12.8 0-20.4-8.4-21.2-23.5-0.4-8.5 5.1-70.1 6.9-77 4.1-15.5 18.4-28.7 35.7-33 4.5-1.1 14.8-1.3 50.7-1.2zm46 11.2l-47-0.2c-44.1-0.2-47.3-0.1-52.3 1.7-11 4-19.7 12.9-22.7 23.5-2 6.7-7.8 67.5-7.2 74.7 0.9 10.2 5.6 14.7 14 13.4 6.7-1.1 11.7-4.8 22.2-16.3 5.4-5.9 12.5-13.6 15.7-17.1l6-6.2h46.5l14.3 15.7c7.9 8.6 15.5 16.7 17 18 4 3.3 11 6.3 15 6.3 7.6 0 11-5.5 11-17.7 0-9.4-5.5-66.6-6.8-70.8-2.9-9.6-10.2-17.7-20-22.3z"/><path fill-rule="evenodd" d="m630 712.3c5.7 27.5-32 41.4-45.4 16.8-2.3-4.3-2.8-6.6-2.8-11.6 0-10.6 4.9-18.2 14.7-22.6 13.4-6.1 30.4 2.8 33.5 17.4zm-18.1-13.3h-4.8c-2.6 0-5.1 0.3-5.4 0.7-0.4 0.3-0.7 3.3-0.7 6.5v5.8h-4.2c-8.2 0-8.9 0.6-8.6 6.4l0.3 5.1 12 1 0.3 5.2c0.3 5.8 1.7 6.8 7.8 6.1 2.7-0.3 2.9-0.6 3.4-5.8l0.5-5.5 11-1v-11l-11-1-0.3-6.3z"/><path  d="m688 702.3c0 3.9-2.6 6.7-6.2 6.7-5.8 0-8.9-6.9-4.8-11 4.1-4.1 11-1.4 11 4.3z"/><path  d="m670.5 713.5c3.2 3.1 3.2 5.9-0.1 9.1-1.9 2-3.1 2.4-5.2 1.9-3.5-0.8-5.2-3.1-5.2-7.1 0-2.3 0.7-3.8 2.2-4.8 3.2-2.2 5.5-2 8.3 0.9z"/><path  d="m703.5 713.5c3.2 3.1 3.2 5.9-0.1 9.1-2.7 2.8-6.4 2.7-9.3-0.1-2.3-2.2-1.8-7.5 0.8-9.7 3.1-2.5 5.7-2.3 8.6 0.7z"/><path  d="m682.5 725c6.1 0 8.7 8.1 3.9 11.9-1.5 1.2-3.2 2.1-3.9 2.1-0.7 0-2.4-0.9-3.9-2.1-3.2-2.5-3.5-7-0.6-9.9 1.1-1.1 3.1-2 4.5-2z"/><path  d="m918.5 668.1l0.3 64.1c0.1 35.3 0 64.3-0.2 64.6-0.3 0.2-11.9-7.8-25.8-17.9l-25.3-18.4-12-0.5-12-0.5-0.3-27.3-0.2-27.2h11.9c13.8 0 8.3 2.8 42.6-21.8z"/><path  d="m968.2 674c0.6 0 4 1.4 7.6 3.1 9 4.4 19.6 15 24.4 24.7 10.2 20.2 8.7 43.9-3.7 62.2-7.5 11.1-20.6 20.8-30.5 22.6-3.3 0.6-3.2 0.4 3.2-4.5 25.9-19.8 33.9-53.2 19.6-82.1-3.3-6.8-5.9-10.3-12.9-17.3-4.8-4.8-8.3-8.7-7.7-8.7z"/><path  d="m938.1 690c3 0 10 4.4 14.4 9.1 16.5 17.7 16.2 48.6-0.8 67.5-4.1 4.6-14.2 11.2-15.3 10.1-0.3-0.2 1.2-2.4 3.2-4.8 8.9-10.7 13.7-25 13.8-40.9 0-15.4-4.1-27.3-12.6-36.6-2.2-2.4-3.5-4.4-2.7-4.4z"/><path  d="m115.2 949.8c9.4 2.7 14.8 6.4 14.8 10.1 0 7.7-16.9 13.3-40.5 13.3-20.9 0-37.6-4.9-40-11.6-0.9-2.6-0.6-3.1 2.7-6.1 3.8-3.2 11-5.9 20.3-7.5 8.8-1.6 35.1-0.5 42.7 1.8z"/><path fill-rule="evenodd" d="m1196.7 948c41 0 42.4 0.1 44.3 2 2 2 2 3.3 2 73.2 0 55.5-0.3 71.9-1.3 73.8l-1.3 2.5-43.4 0.3c-43.3 0.2-43.5 0.2-45.2-1.9-1.7-2-1.8-7-1.8-74.5v-72.3l2.2-1.5c1.9-1.4 7.9-1.6 44.5-1.6zm-1 19c-37.6 0-36.9-0.1-38.3 5.6-1.1 4.5 0.1 14.2 2.1 16.4 1.8 1.9 2.9 2 35.9 2 29.3 0 34.5-0.2 36.4-1.6 2-1.4 2.2-2.4 2.2-10.3 0-7.2-0.3-9.1-1.8-10.4-1.7-1.5-5.7-1.7-36.5-1.7zm0.2 29c-31.9 0-35.8 0.2-37 1.7-0.9 1.1-1.4 4.3-1.4 9.8 0 5.5 0.5 8.7 1.4 9.8 1.2 1.5 5.1 1.7 37 1.7 26.4 0 36-0.3 36.9-1.2 0.8-0.8 1.2-4.6 1.2-10.3 0-5.7-0.4-9.5-1.2-10.3-0.9-0.9-10.5-1.2-36.9-1.2zm-0.5 34c-34.6 0-37.4 0.3-35.8 4.3 0.6 1.6 3.2 1.7 36.8 1.5 35.9-0.3 36.1-0.3 36.4-2.4 0.2-1.5-0.4-2.3-2-2.8-1.3-0.3-17.2-0.6-35.4-0.6zm37.1 8.5l-35.6-0.3c-30.8-0.2-35.8 0-36.9 1.3-1 1.2-1 1.8 0 3 1.1 1.3 6.1 1.5 36.9 1.3l35.6-0.3zm-36 6.5c-19.3 0-35.5 0.3-35.8 0.7-1.3 1.2-0.7 4.1 0.9 4.7 0.9 0.3 17 0.6 35.9 0.6 29.2 0 34.4-0.2 35.5-1.5 1-1.2 1-1.8 0-3-1.1-1.3-6.4-1.5-36.5-1.5zm-7.1 13.9c-6.1 2.8-8.9 7.3-8.9 14.3 0 6.1 1.7 9.4 6.9 13.2 4.3 3.3 13.2 2.9 17.8-0.6 9.5-7.3 8.1-22-2.5-26.8-5.3-2.4-8.1-2.5-13.3-0.1z"/><path  d="m1204.6 1077.6c-4.5 9.6-18.6 6.5-18.6-4 0-4.6 2.2-8 6-9.5 8.2-3.3 16.4 5.5 12.6 13.5z"/><path  d="m386.5 959.3c12.1 0.3 15.1 0.7 22 3.1 30 10.2 51.8 37.6 55.4 69.5 0.8 7.1 1.3 8.7 3.7 11.3l2.9 2.9v20.1 20l-2.8 2.4c-2.5 2.1-3.8 2.4-10.7 2.4-7.5 0-7.9-0.1-10.4-3.1-2.6-3-2.6-3.1-2.6-21.9v-18.9l3.1-3.6c3-3.4 3.1-3.8 2.5-9.7-2.6-22.7-17.3-44.1-36.7-53.7-19-9.4-37.8-9.4-56.8 0-19.3 9.5-33.8 30.7-36.6 53.1-0.7 5.5-0.6 5.9 2.4 9.3l3.1 3.6v18.5c0 21.1-0.6 23.5-6.6 25.4-2 0.7-6.1 1-9.2 0.8-4.7-0.4-6-1-8.4-3.7l-2.8-3.1v-18.1c0-18.7 0.7-22.5 4.6-24.7 1.1-0.6 1.9-3.4 2.5-9.2 1.1-9.7 5.7-24.1 10.1-31.8 11.2-19.6 28.9-33.5 50.3-39.3 5.7-1.5 9.6-1.8 21-1.6z"/><path  d="m997.3 978c6.9 6.1 9.1 11.4 8.5 20.8-0.3 4.2-1.1 9-1.7 10.6l-1.2 2.9-6.7-0.7c-8.4-0.9-17.1-2.9-24.6-5.6l-5.8-2.2 0.7-7.3 0.7-7.3-3-1.6c-1.7-0.9-7-2.7-11.9-4.2-17.8-5.3-43.6-4-58.8 3l-5.5 2.5 0.6 7.3c0.5 5.6 0.3 7.6-0.7 8.5-4.2 3.5-35.2 10-37.7 8-2.9-2.3-6.2-10.6-6.2-15.7 0-6.6 1.8-10.8 6.4-14.8 9-7.9 30.6-15.4 54.1-18.7 30.9-4.4 80 3.3 92.8 14.5z"/><path  d="m44 969l5.3 3c8.5 4.8 19.2 7.1 35.7 7.7 20.2 0.7 38.4-2.6 46.9-8.6 1.6-1.2 3.2-2.1 3.6-2.1 0.4 0 0.5 5.1 0.3 11.4-0.4 13.1-0.8 14.1-9.2 18-9.4 4.4-19.6 6-37.1 6-17.7-0.1-26.5-1.5-36.6-6-8.5-3.8-8.9-4.7-8.9-18.1z"/><path  d="m607 981c0.8 0 66.2 35.6 71.7 39 4.7 3 4.9 7.4 0.6 11.1-1.8 1.6-71.5 37.9-72.7 37.9-0.3 0-0.6-19.8-0.6-44 0-27.7 0.4-44 1-44z"/><path fill-rule="evenodd" d="m907.9 995.7c1.4 1.2 2.4 3.6 2.9 7.3 0.7 4.6 1.1 5.5 2.7 5.3 10.4-1.1 17.9-1.3 22.7-0.5 6.9 1.1 7.8 0.4 7.8-5.5 0-3 0.6-4.9 2-6.3 2.5-2.5 8-2.6 11-0.2 2 1.6 2.3 3 2.8 11.3 0.4 8.1 0.8 9.6 2.6 10.9 5.3 3.6 12.5 11.4 15.9 17.2 5.7 9.6 7.9 17.6 7.9 28.8-0.1 13.5-0.8 15.4-6 16-3.4 0.4-4.6 1.1-6.2 3.7-3.3 5.6-9.4 5.3-12.2-0.5l-1.3-2.7-34.2-0.3-34.1-0.2-2 3.5c-3.5 5.8-9.6 5.7-12.4-0.2-0.9-1.9-2.3-3-4.3-3.3-2.6-0.4-3.2-1.2-4.2-5-2.7-10.4-0.4-26.4 5.4-37.3 1.5-2.9 6.7-9.2 11.5-14l8.8-8.9v-8.4c0-7.1 0.3-8.7 2-10.4 2.5-2.5 8-2.6 10.9-0.3zm2.4 33.2c-5.8 5.5-7.8 10.3-7.8 18.6 0.1 10.1 4.9 18 14 22.8 5.7 3 16.5 3 22.1 0 5.7-3 11.9-10.3 13.4-15.8 3.6-12.9-3.4-26.7-15.7-31.1-8.7-3.1-19.6-0.8-26 5.5z"/><path  d="m936.1 1034.3c4.8 3.1 8.3 10.5 7.4 15.6-2.4 14.6-20.3 19.1-29.1 7.5-2.4-3.1-2.9-4.7-2.9-9.5 0-6.5 1.8-9.8 7.5-13.7 4.5-3.1 12.4-3 17.1 0.1z"/><path  d="m44 1010.1l3.5 2.4c8.5 5.7 23.5 8.7 43 8.6 16.8-0.1 29.7-2.4 38.2-7 3.1-1.7 6-3.1 6.5-3.1 0.4 0 0.8 4.7 0.8 10.5 0 10.1-0.1 10.5-3 13.8-5.8 6.6-22.6 10.7-43.9 10.7-19.2-0.1-35-3.7-42.1-9.7l-3-2.5v-11.9z"/><path  d="m292.2 1050c0.4 0 0.8 6.7 0.8 15 0 8.2-0.3 15-0.6 15-3.8 0-8.4-7.8-8.4-14.4 0-5.6 1.4-9.3 4.8-12.9 1.4-1.5 2.9-2.7 3.4-2.7z"/><path  d="m44.6 1053c0.3 0 1.7 0.9 3.1 2 1.4 1.1 6 3.1 10.2 4.4 21.5 6.8 53.3 5.6 70.1-2.7 3.6-1.8 6.8-3.4 7.3-3.5 1.2-0.6 0.8 20.1-0.6 22.8-1.7 3.4-12.4 8.5-22.2 10.6-10.9 2.2-35.2 2.2-45.8 0-9.5-2.1-16.3-4.9-19.9-8.4-2.7-2.5-2.8-2.8-2.8-13.9 0-6.2 0.3-11.3 0.6-11.3z"/><path  d="m477 1053c1.6 0 5.1 3.9 6.6 7.6 3 7.2 0.5 17.3-5.3 21.2l-2.3 1.4v-15.1c0-9.4 0.4-15.1 1-15.1z"/></svg>