<svg version="1.2" xmlns="http://www.w3.org/2000/svg" viewBox="0 0 1280 1280" width="480" height="260"><style></style><path  d="m989.8 270.5c6.9 3.2 16.5 12.8 19.7 19.7 3.1 6.6 3.3 15 0.6 26.3-2.3 9.5-12.3 33.9-22.6 55.3-14.7 30.3-10.1 24.8-76.4 91.4l-59.5 59.7 2.5 36.5c1.4 20.1 2.8 36.9 3.2 37.2 0.3 0.4 2.8-1.3 5.4-3.6 8.2-7.2 14.9-8.8 22.8-5.1 5.1 2.4 21.9 19.5 24 24.3 1.8 4.4 1.9 7.9 0.4 13.3-0.9 3.2-5.4 8.3-24.4 27.5l-23.3 23.5 2.7 38.5c1.4 21.2 3 39.1 3.5 39.8 0.6 1.1 1.8 0.5 5-2.6 6.9-6.7 12.5-8.6 20.3-7 4 0.9 6.1 2.4 14.9 11 5.6 5.5 11 11.5 11.8 13.3 1.8 3.8 2.1 11.1 0.5 15.2-0.5 1.5-11.6 13.4-24.5 26.4l-23.5 23.6 0.6 5.4c1.9 18.9 6.6 95.7 6.2 102-0.8 11.7-2.4 14.4-19.9 31.6-14.9 14.7-15.6 15.3-19.5 15.3-5 0-9.2-3.1-11.6-8.7-0.9-2.1-5.5-18-10.3-35.3-10.6-39.2-31.2-111.5-39.8-140-9.1-30.1-14.6-45.6-22.3-63.3-12.6-28.8-38.7-78.2-42-79.4-1-0.4-36.7 34.5-110 107.8-59.6 59.6-108.8 109.1-109.2 109.9-0.5 0.8 1.1 19.4 3.6 42.5 6.1 57.3 5.6 63.1-6.7 77.3-8.5 9.9-11.9 12.2-18 12.2-9.4 0-10.1-0.8-44.8-56.9l-20.7-33.3-5 0.6c-12.4 1.7-16.7 1.8-23 0.6-8.2-1.6-14.8-5.8-19.2-12.3-5.3-7.9-6.2-16.2-3.7-34.7l0.6-4.6-23.3-14.4c-35.6-21.9-59.1-37-61.7-39.4-3.5-3.2-5.2-7-5.2-11.9 0-5.8 2.5-9.4 12.4-17.9 13.9-12.1 19.1-12.6 73.1-6.9 21.5 2.2 40.6 4.3 42.5 4.6 3.5 0.5 4 0 112.8-108.8 62.7-62.7 109.1-109.8 109-110.7-0.4-2-17.8-12-43.3-25-27-13.7-47.7-22.7-67.9-29.6-26.8-9.1-102.7-31.2-175.1-50.8-15.4-4.2-29.7-8.4-31.7-9.3-6.8-2.9-10.2-8.4-8.7-13.8 1.3-4.3 29.1-32.1 34.7-34.7 8.2-3.7 13.1-3.6 99.7 2.7 10.4 0.7 19.6 1 20.5 0.5 0.8-0.4 11.4-10.8 23.4-23 12.6-12.8 23.4-22.8 25.3-23.6 4.3-1.9 11.7-1.8 15.8 0.1 4.1 2 22.1 20.2 23.5 23.9 1.5 4.1 1.2 12.3-0.6 15.8-0.9 1.6-3.4 5-5.6 7.4-4 4.4-4 4.4-1.7 5.2 1.3 0.5 10.5 1.4 20.4 2.1 38.6 2.5 47.2 3.1 51.9 3.6l4.9 0.6 23.1-23c14.8-14.7 24.5-23.6 26.8-24.6 4.7-1.9 9.9-1.9 14.6 0 4.8 2.1 21.9 18.9 24.3 24 3.5 7.6 2.1 14.6-4.6 22.2-2.5 2.8-4.5 5.4-4.5 5.7 0 0.9 5.7 1.4 40.3 3.7l33.9 2.2 58.6-58.6c41.9-41.8 60.6-59.7 65.2-62.7 18.2-11.6 62.5-31.6 82-37 9.8-2.7 20.3-2.6 26.8 0.5z"/></svg>